<?xml version="1.0" standalone="no"?>
<!DOCTYPE svg PUBLIC "-//W3C//DTD SVG 20010904//EN"
 "http://www.w3.org/TR/2001/REC-SVG-20010904/DTD/svg10.dtd">
<svg version="1.0" xmlns="http://www.w3.org/2000/svg"
 width="1024.000000pt" height="1024.000000pt" viewBox="0 0 1024.000000 1024.000000"
 preserveAspectRatio="xMidYMid meet">
<metadata>
Created by potrace 1.14, written by Peter Selinger 2001-2017
</metadata>
<g transform="translate(0.000000,1024.000000) scale(0.100000,-0.100000)"
fill="#000000" stroke="none">
<path d="M1326 8940 c-1 -3 -2 -286 -2 -630 l1 -626 -650 1 c-357 1 -656 -1
-662 -3 -10 -3 -13 -523 -13 -2553 0 -2421 1 -2549 18 -2550 9 0 307 -1 662
-2 l645 -2 1 -615 c1 -338 2 -622 3 -630 1 -13 374 -15 3299 -14 1814 0 3302
3 3307 6 7 4 10 1376 10 3815 l0 3808 -3308 0 c-1820 0 -3310 -2 -3311 -5z
m5279 -1269 c19 -1 20 -7 18 -118 -1 -65 -3 -120 -4 -123 -1 -3 0 -9 1 -15 2
-8 1 -183 -1 -270 0 -5 0 -48 1 -95 1 -47 0 -89 -1 -95 -1 -5 0 -14 1 -20 2
-13 2 -277 0 -290 -1 -5 -2 -13 -1 -17 1 -5 2 -39 2 -78 0 -38 -1 -73 -2 -77
-1 -5 0 -12 1 -18 2 -13 2 -277 0 -290 -1 -5 -2 -14 -1 -20 3 -14 3 -289 1
-300 -1 -6 -2 -14 -1 -20 3 -14 3 -289 1 -300 -1 -6 -2 -14 -1 -20 3 -14 3
-289 1 -300 -1 -6 -2 -14 -1 -20 3 -14 3 -289 1 -300 -1 -6 -2 -14 -1 -20 3
-14 3 -289 1 -300 -1 -6 -2 -14 -1 -20 3 -14 3 -289 1 -300 -1 -6 -2 -14 -1
-20 3 -14 3 -289 1 -300 -1 -6 -2 -13 -1 -17 1 -5 2 -39 2 -78 0 -38 -1 -73
-2 -77 -1 -5 0 -12 1 -18 2 -13 2 -277 0 -290 -1 -5 -2 -13 -1 -17 1 -5 2 -39
2 -78 0 -38 -1 -73 -2 -77 -1 -5 0 -12 1 -18 2 -8 1 -183 -1 -270 0 -5 1 -49
2 -97 0 -47 -1 -90 -4 -95 -2 -4 -2 -16 2 -25 3 -9 5 -53 3 -97 l-4 -81 -2642
0 -2642 0 0 2538 c0 1395 3 2539 7 2542 6 4 5189 5 5264 1z"/>
<path d="M9478 2585 c-1 -1 -21 -5 -43 -8 -22 -4 -67 -15 -100 -27 -33 -12
-68 -24 -77 -27 -10 -3 -18 -9 -18 -14 0 -5 -7 -9 -15 -9 -23 0 -129 -85 -184
-148 -45 -51 -118 -179 -126 -220 -2 -10 -4 -17 -6 -17 -1 0 -3 -9 -5 -20 -1
-11 -7 -42 -11 -70 -13 -75 -5 -193 17 -262 1 -5 2 -11 2 -14 -1 -4 18 -43 41
-88 88 -170 210 -275 395 -338 124 -42 339 -40 442 4 8 3 17 7 20 8 104 28
294 183 336 275 9 19 22 41 28 49 15 19 34 76 51 151 13 59 14 219 2 260 -2 8
-7 29 -12 45 -31 117 -136 266 -235 335 -19 13 -37 27 -40 30 -12 14 -141 71
-195 86 -51 14 -256 29 -267 19z"/>
</g>
</svg>
