<svg width="66" height="66" viewBox="0 0 66 66" fill="none" xmlns="http://www.w3.org/2000/svg">
<g clip-path="url(#clip0_261_9)">
<path d="M65.7555 63.879L21.3064 0.57291C20.9688 0.0920524 20.3584 -0.114433 19.7982 0.0625544C19.238 0.239542 18.8571 0.759191 18.8571 1.34686V64.653C18.8571 65.3969 19.4601 65.9999 20.2041 65.9999H64.653C65.1556 65.9999 65.6164 65.72 65.8482 65.2742C66.08 64.8282 66.0442 64.2903 65.7555 63.879ZM21.551 63.306V59.2652H25.5918V56.5714H21.551V49.8367H25.5918V47.1428H21.551V40.4081H25.5918V37.7142H21.551V30.9795H25.5918V28.2856H21.551V21.5509H25.5918V18.8571H21.551V5.60925L62.0615 63.306H21.551Z" fill="white"/>
<path d="M30.3061 53.8775H44.449C44.9592 53.8775 45.4255 53.5892 45.6537 53.1329C45.8818 52.6765 45.8325 52.1305 45.5265 51.7224L31.3837 32.8652C31.0357 32.4013 30.4303 32.2121 29.8802 32.3956C29.3302 32.5789 28.9592 33.0937 28.9592 33.6734V52.5305C28.9592 53.2745 29.5622 53.8775 30.3061 53.8775ZM31.653 37.7142L41.7551 51.1836H31.653V37.7142Z" fill="white"/>
<path d="M14.8163 0H1.34694C0.603025 0 0 0.603025 0 1.34694V64.6531C0 65.397 0.603025 66 1.34694 66H14.8163C15.5602 66 16.1633 65.397 16.1633 64.6531V1.34694C16.1633 0.603025 15.5602 0 14.8163 0ZM13.4694 63.3061H2.69388V57.2449H8.08163V54.551H2.69388V46.4694H8.08163V43.7755H2.69388V34.3469H8.08163V31.6531H2.69388V22.2245H8.08163V19.5306H2.69388V11.449H8.08163V8.7551H2.69388V2.69388H13.4694V63.3061Z" fill="white"/>
</g>
<defs>
<clipPath id="clip0_261_9">
<rect width="66" height="66" fill="white"/>
</clipPath>
</defs>
</svg>
