<svg width="75" height="61" viewBox="0 0 75 61" fill="none" xmlns="http://www.w3.org/2000/svg">
<g clip-path="url(#clip0_217_40)">
<path d="M68.9163 0H6.08368C2.72527 0 0 2.75502 0 6.15009V54.8499C0 58.245 2.72527 61 6.08368 61H68.9163C72.2747 61 75 58.245 75 54.8499V6.15009C75 2.75502 72.2747 0 68.9163 0ZM23.5502 9.12774C23.5502 10.3383 22.6005 11.3262 21.4168 11.3262C20.2331 11.3262 19.2834 10.3383 19.2834 9.12774C19.2834 7.9172 20.2331 6.92929 21.4168 6.92929C22.6005 6.92929 23.5502 7.9172 23.5502 9.12774ZM16.3379 9.12774C16.3379 10.3383 15.3881 11.3262 14.2044 11.3262C13.0207 11.3262 12.071 10.3383 12.071 9.12774C12.071 7.9172 13.0207 6.92929 14.2044 6.92929C15.3881 6.92929 16.3379 7.9172 16.3379 9.12774ZM7.2261 6.92929C8.39604 6.92929 9.35952 7.9172 9.35952 9.12774C9.35952 10.3383 8.4098 11.3262 7.2261 11.3262C6.04239 11.3262 5.09268 10.3383 5.09268 9.12774C5.09268 7.9172 6.04239 6.92929 7.2261 6.92929ZM68.9163 56.1161H6.08368C5.39549 56.1161 4.83116 55.5456 4.83116 54.8499V15.5839H70.1688V54.8499C70.1688 55.5456 69.6045 56.1161 68.9163 56.1161Z" fill="white"/>
<path d="M48.7248 46.513C48.3161 46.513 47.9199 46.3377 47.6475 45.9872C47.1645 45.3863 47.2512 44.4976 47.8456 44.0094L57.3309 36.2231L47.8456 28.4369C47.2512 27.9487 47.1521 27.0599 47.6475 26.459C48.1304 25.8581 49.0096 25.758 49.604 26.2587L60.4143 35.134C60.7362 35.3969 60.9343 35.7975 60.9343 36.2231C60.9343 36.6487 60.7486 37.0493 60.4143 37.3122L49.604 46.1875C49.3439 46.4003 49.0343 46.5005 48.7248 46.5005V46.513Z" fill="white"/>
<path d="M25.2479 46.5128C24.9383 46.5128 24.6287 46.4127 24.3687 46.1999L13.5584 37.3245C13.2365 37.0617 13.0383 36.6611 13.0383 36.2355C13.0383 35.8098 13.2241 35.4093 13.5584 35.1464L24.3687 26.2711C24.9631 25.7829 25.8423 25.8705 26.3252 26.4714C26.8081 27.0722 26.7215 27.961 26.1271 28.4492L16.6418 36.2355L26.1271 44.0217C26.7215 44.5099 26.8205 45.3987 26.3252 45.9996C26.0528 46.3376 25.6441 46.5253 25.2479 46.5253V46.5128Z" fill="white"/>
<path d="M32.6149 46.4628C32.3797 46.4628 32.1444 46.4002 31.9215 46.275C31.2528 45.887 31.0299 45.0232 31.4138 44.3598L41.543 26.6091C41.9269 25.9332 42.7813 25.7078 43.4376 26.0959C44.1063 26.4839 44.3292 27.3477 43.9453 28.0112L33.8161 45.7618C33.556 46.2125 33.0855 46.4628 32.6149 46.4628Z" fill="white"/>
</g>
<defs>
<clipPath id="clip0_217_40">
<rect width="75" height="61" fill="white"/>
</clipPath>
</defs>
</svg>
