<svg width="31" height="26" viewBox="0 0 31 26" fill="none" xmlns="http://www.w3.org/2000/svg">
<path d="M30.1701 3.66835C29.0903 4.15881 27.9304 4.49021 26.7109 4.64C27.9692 3.86824 28.9105 2.65358 29.3593 1.22267C28.1771 1.94245 26.8834 2.44909 25.5342 2.72057C24.6269 1.72754 23.4252 1.06934 22.1156 0.848167C20.806 0.626992 19.4618 0.855215 18.2917 1.4974C17.1216 2.13959 16.1911 3.15981 15.6446 4.39968C15.0981 5.63954 14.9662 7.02967 15.2694 8.35425C12.8741 8.23096 10.5309 7.59277 8.39178 6.48109C6.25269 5.36941 4.36553 3.80908 2.85278 1.90137C2.33553 2.81601 2.03811 3.87647 2.03811 5.00585C2.03753 6.02256 2.28178 7.02369 2.74917 7.92043C3.21657 8.81716 3.89266 9.58177 4.71747 10.1464C3.76091 10.1152 2.82546 9.85026 1.98897 9.37361V9.45314C1.98888 10.8791 2.47006 12.2612 3.35087 13.3649C4.23168 14.4686 5.45787 15.2259 6.82138 15.5084C5.93402 15.7545 5.00368 15.7908 4.10065 15.6144C4.48535 16.8414 5.23471 17.9143 6.24383 18.683C7.25295 19.4517 8.4713 19.8777 9.72833 19.9013C7.59446 21.6185 4.95914 22.5499 2.2463 22.5458C1.76576 22.5459 1.28561 22.5172 0.80835 22.4596C3.56203 24.2746 6.76751 25.2378 10.0413 25.2341C21.1233 25.2341 27.1816 15.8252 27.1816 7.66495C27.1816 7.39983 27.1752 7.13207 27.1635 6.86695C28.342 5.99337 29.3591 4.9116 30.1675 3.67233L30.1701 3.66835Z" fill="#ffffff"/>
</svg>
