<svg width="32" height="32" viewBox="0 0 32 32" fill="none" xmlns="http://www.w3.org/2000/svg">
<path fill-rule="evenodd" clip-rule="evenodd" d="M9.44921 1.07036C11.1137 0.995613 11.6443 0.979004 15.8842 0.979004C20.124 0.979004 20.6547 0.996997 22.3178 1.07036C23.9808 1.14371 25.1159 1.40255 26.1092 1.77764C27.1493 2.16105 28.0929 2.76037 28.8734 3.53548C29.668 4.29536 30.281 5.21442 30.6726 6.23037C31.0586 7.19926 31.3225 8.30656 31.3991 9.92598C31.4757 11.5523 31.4928 12.07 31.4928 16.2044C31.4928 20.3401 31.4743 20.8578 31.3991 22.4814C31.3239 24.1008 31.0586 25.2081 30.6726 26.177C30.281 27.1931 29.667 28.1136 28.8734 28.8746C28.0929 29.6497 27.1493 30.2477 26.1092 30.6297C25.1159 31.0062 23.9808 31.2636 22.3206 31.3384C20.6547 31.4131 20.124 31.4297 15.8842 31.4297C11.6443 31.4297 11.1137 31.4117 9.44921 31.3384C7.78903 31.265 6.65386 31.0062 5.66059 30.6297C4.61896 30.2476 3.67521 29.6487 2.89504 28.8746C2.10096 28.1143 1.48645 27.1941 1.09437 26.1784C0.709837 25.2095 0.44591 24.1022 0.369286 22.4827C0.292662 20.8564 0.275635 20.3387 0.275635 16.2044C0.275635 12.0686 0.294081 11.5509 0.369286 9.92875C0.444491 8.30655 0.709837 7.19926 1.09437 6.23037C1.48703 5.21454 2.102 4.29441 2.89645 3.5341C3.67552 2.75968 4.61832 2.16028 5.65917 1.77764C6.65244 1.40255 7.78761 1.1451 9.44779 1.07036H9.44921ZM22.1915 3.81092C20.5455 3.73756 20.0517 3.72234 15.8842 3.72234C11.7167 3.72234 11.2229 3.73756 9.57692 3.81092C8.05437 3.87874 7.22854 4.1265 6.67798 4.3355C5.95006 4.61233 5.4293 4.94037 4.883 5.47325C4.36514 5.96469 3.96661 6.56295 3.71661 7.22417C3.50235 7.76121 3.24836 8.56677 3.17883 10.0519C3.10362 11.6575 3.08801 12.1392 3.08801 16.2044C3.08801 20.2695 3.10362 20.7512 3.17883 22.3568C3.24836 23.842 3.50235 24.6475 3.71661 25.1846C3.96635 25.8448 4.36508 26.4441 4.883 26.9355C5.38673 27.4407 6.00114 27.8296 6.67798 28.0732C7.22854 28.2822 8.05437 28.53 9.57692 28.5978C11.2229 28.6712 11.7153 28.6864 15.8842 28.6864C20.0531 28.6864 20.5455 28.6712 22.1915 28.5978C23.714 28.53 24.5399 28.2822 25.0904 28.0732C25.8183 27.7964 26.3391 27.4684 26.8854 26.9355C27.4033 26.4441 27.802 25.8448 28.0518 25.1846C28.266 24.6475 28.52 23.842 28.5896 22.3568C28.6648 20.7512 28.6804 20.2695 28.6804 16.2044C28.6804 12.1392 28.6648 11.6575 28.5896 10.0519C28.52 8.56677 28.266 7.76121 28.0518 7.22417C27.768 6.51411 27.4317 6.00614 26.8854 5.47325C26.3816 4.96815 25.7683 4.5794 25.0904 4.3355C24.5399 4.1265 23.714 3.87874 22.1915 3.81092ZM13.8906 20.8979C15.004 21.35 16.2437 21.411 17.3981 21.0706C18.5525 20.7301 19.5499 20.0092 20.22 19.0311C20.89 18.053 21.1912 16.8783 21.072 15.7076C20.9528 14.537 20.4206 13.443 19.5664 12.6126C19.0219 12.0817 18.3634 11.6753 17.6385 11.4224C16.9136 11.1696 16.1402 11.0767 15.3741 11.1504C14.6079 11.2241 13.8681 11.4626 13.2078 11.8487C12.5474 12.2348 11.9831 12.7589 11.5554 13.3833C11.1276 14.0077 10.8472 14.7168 10.7341 15.4597C10.621 16.2025 10.6782 16.9605 10.9016 17.6792C11.1249 18.3978 11.5088 19.0593 12.0256 19.6158C12.5425 20.1724 13.1794 20.6103 13.8906 20.8979ZM10.2112 10.6706C10.9562 9.94394 11.8406 9.36749 12.814 8.9742C13.7874 8.58092 14.8306 8.37849 15.8842 8.37849C16.9378 8.37849 17.981 8.58091 18.9544 8.9742C19.9278 9.36749 20.8122 9.94394 21.5572 10.6706C22.3022 11.3973 22.8931 12.2601 23.2963 13.2095C23.6995 14.159 23.907 15.1767 23.907 16.2044C23.907 17.2321 23.6995 18.2497 23.2963 19.1992C22.8931 20.1487 22.3022 21.0114 21.5572 21.7381C20.0526 23.2057 18.012 24.0302 15.8842 24.0302C13.7564 24.0302 11.7158 23.2057 10.2112 21.7381C8.70662 20.2705 7.86136 18.2799 7.86136 16.2044C7.86136 14.1288 8.70662 12.1383 10.2112 10.6706ZM25.6864 9.54396C25.871 9.37409 26.0188 9.16981 26.121 8.94322C26.2232 8.71662 26.2778 8.47233 26.2815 8.22479C26.2852 7.97726 26.238 7.73152 26.1425 7.50212C26.0471 7.27271 25.9055 7.06432 25.726 6.88927C25.5466 6.71421 25.3329 6.57606 25.0978 6.483C24.8626 6.38993 24.6107 6.34383 24.3569 6.34744C24.1031 6.35105 23.8527 6.40429 23.6204 6.50401C23.3881 6.60372 23.1787 6.74789 23.0045 6.92797C22.6658 7.27819 22.4804 7.74338 22.4876 8.22479C22.4948 8.7062 22.6941 9.16593 23.0431 9.50637C23.3921 9.84682 23.8634 10.0412 24.3569 10.0482C24.8504 10.0552 25.3273 9.87434 25.6864 9.54396Z" fill="white"/>
</svg>
