<svg width="46" height="28" viewBox="0 0 46 28" fill="none" xmlns="http://www.w3.org/2000/svg">
<path d="M41.5525 4.52864H28.5955V0.937012H41.5525V4.52864ZM44.7473 22.4868C43.9291 24.8159 40.9916 27.8742 35.3054 27.8742C29.6154 27.8742 25.0064 24.7692 25.0064 17.683C25.0064 10.6613 29.31 7.05175 35.124 7.05175C40.8287 7.05175 44.3123 10.2519 45.0731 15C45.2174 15.9087 45.2748 17.1334 45.2489 18.8431H30.391C30.6316 24.6094 36.838 24.7908 38.8833 22.4868H44.7473ZM30.5205 15.3035H39.7107C39.5164 12.5254 37.608 11.3186 35.1258 11.3186C32.4123 11.3186 30.9111 12.6978 30.5205 15.3035ZM12.7991 27.8526H0.830566V0.974724H13.7005C23.8366 1.12018 24.0291 10.7511 18.7352 13.3766C25.1415 15.6393 25.3563 27.8526 12.7991 27.8526ZM6.38355 11.7119H13.0175C17.6598 11.7119 18.3965 6.32445 12.44 6.32445H6.38355V11.7119ZM12.6603 17.0993H6.38355V22.5155H12.5677C18.2225 22.5155 17.8764 17.0993 12.6603 17.0993Z" fill="white"/>
</svg>
