<svg width="45" height="44" viewBox="0 0 45 44" fill="none" xmlns="http://www.w3.org/2000/svg">
<path d="M34.8452 15.7636H26.3553V13.3662H34.8452V15.7636ZM36.9386 27.7506C36.4025 29.3053 34.4777 31.3467 30.7519 31.3467C27.0236 31.3467 24.0036 29.2742 24.0036 24.5441C24.0036 19.8572 26.8235 17.4478 30.633 17.4478C34.371 17.4478 36.6535 19.5839 37.152 22.7532C37.2466 23.3598 37.2842 24.1773 37.2672 25.3185H27.5318C27.6894 29.1675 31.7561 29.2886 33.0963 27.7506H36.9386ZM27.6167 22.9558H33.6384C33.5111 21.1014 32.2606 20.2959 30.6342 20.2959C28.8562 20.2959 27.8726 21.2165 27.6167 22.9558ZM16.0049 31.3324H8.16272V13.3914H16.5956C23.2371 13.4885 23.3632 19.9171 19.8945 21.6696C24.0922 23.18 24.2328 31.3324 16.0049 31.3324ZM11.8012 20.5584H16.1481C19.1899 20.5584 19.6726 16.9623 15.7697 16.9623H11.8012V20.5584ZM15.914 24.1545H11.8012V27.7698H15.8533C19.5586 27.7698 19.3318 24.1545 15.914 24.1545Z" fill="white"/>
</svg>
