<svg width="47" height="45" viewBox="0 0 47 45" fill="none" xmlns="http://www.w3.org/2000/svg">
<path d="M36.4164 15.9575H27.3748V13.4043H36.4164V15.9575ZM38.6458 28.7234C38.0748 30.3792 36.025 32.5532 32.057 32.5532C28.0865 32.5532 24.8703 30.346 24.8703 25.3086C24.8703 20.3171 27.8734 17.7511 31.9305 17.7511C35.9113 17.7511 38.3422 20.026 38.8731 23.4013C38.9738 24.0473 39.0139 24.9179 38.9958 26.1332H28.6277C28.7956 30.2324 33.1265 30.3613 34.5538 28.7234H38.6458ZM28.7181 23.6171H35.1312C34.9955 21.6422 33.6638 20.7843 31.9317 20.7843C30.0382 20.7843 28.9906 21.7647 28.7181 23.6171ZM16.3518 32.5379H8V13.4311H16.9809C24.054 13.5345 24.1883 20.3809 20.4942 22.2473C24.9646 23.8558 25.1144 32.5379 16.3518 32.5379ZM11.875 21.0639H16.5042C19.7437 21.0639 20.2578 17.2341 16.1012 17.2341H11.875V21.0639ZM16.255 24.8937H11.875V28.7439H16.1904C20.1364 28.7439 19.8948 24.8937 16.255 24.8937Z" fill="#FF0068"/>
</svg>
