<svg width="60" height="60" viewBox="0 0 60 60" fill="none" xmlns="http://www.w3.org/2000/svg">
<path d="M57 4.5H3C1.34297 4.5 0 5.84297 0 7.5V52.5C0 54.157 1.34297 55.5 3 55.5H57C58.657 55.5 60 54.157 60 52.5V7.5C60 5.84297 58.657 4.5 57 4.5ZM57 52.5H3V19.5H57V52.5ZM57 16.5H3V7.5H57V16.5Z" fill="#FF0068"/>
<path d="M52.5 13.5C53.3284 13.5 54 12.8284 54 12C54 11.1716 53.3284 10.5 52.5 10.5C51.6716 10.5 51 11.1716 51 12C51 12.8284 51.6716 13.5 52.5 13.5Z" fill="#FF0068"/>
<path d="M46.5 13.5C47.3284 13.5 48 12.8284 48 12C48 11.1716 47.3284 10.5 46.5 10.5C45.6716 10.5 45 11.1716 45 12C45 12.8284 45.6716 13.5 46.5 13.5Z" fill="#FF0068"/>
<path d="M40.5 13.5C41.3284 13.5 42 12.8284 42 12C42 11.1716 41.3284 10.5 40.5 10.5C39.6716 10.5 39 11.1716 39 12C39 12.8284 39.6716 13.5 40.5 13.5Z" fill="#FF0068"/>
<path d="M32.613 25.545C31.801 25.3361 30.993 25.832 30.7941 26.636L26.2941 44.636C26.0951 45.439 26.581 46.254 27.3871 46.455C27.5101 46.485 27.6301 46.5 27.7501 46.5C28.4241 46.5 29.0361 46.046 29.2062 45.3631L33.7062 27.3631C33.905 26.56 33.4189 25.746 32.613 25.545Z" fill="#FF0068"/>
<path d="M23.171 40.658L13.854 36.0001L23.1701 31.3421C23.9111 30.9711 24.2101 30.0711 23.8411 29.329C23.4691 28.5861 22.5721 28.2901 21.828 28.658L9.82805 34.658C9.32203 34.913 9 35.4321 9 36.0001C9 36.5681 9.32203 37.0871 9.82898 37.3421L21.829 43.3421C22.046 43.4491 22.2739 43.5001 22.5 43.5001C23.048 43.5001 23.578 43.197 23.842 42.6711C24.2111 41.9301 23.912 41.029 23.171 40.658Z" fill="#FF0068"/>
<path d="M50.1711 34.658L38.1711 28.658C37.954 28.5519 37.7261 28.5 37.5 28.5C36.9521 28.5 36.422 28.803 36.158 29.329C35.789 30.07 36.088 30.971 36.829 31.342L46.146 36L36.83 40.658C36.0879 41.029 35.789 41.9299 36.158 42.671C36.53 43.414 37.427 43.71 38.1711 43.342L50.1711 37.342C50.678 37.087 51 36.5691 51 36C51 35.4309 50.678 34.913 50.1711 34.658Z" fill="#FF0068"/>
</svg>
