<svg width="56" height="62" viewBox="0 0 56 62" fill="none" xmlns="http://www.w3.org/2000/svg">
<path d="M11.4614 62C11.2046 62.0012 10.9513 61.941 10.7231 61.8245C10.4149 61.6886 10.1531 61.4671 9.96966 61.1867C9.78617 60.9064 9.68881 60.5793 9.68939 60.2453V50.3019H4.37342C3.27684 50.3019 2.22518 49.8705 1.44978 49.1027C0.674383 48.3348 0.23877 47.2934 0.23877 46.2075V4.09434C0.23877 3.00845 0.674383 1.96704 1.44978 1.1992C2.22518 0.431367 3.27684 0 4.37342 0H51.6265C52.7231 0 53.7747 0.431367 54.5501 1.1992C55.3255 1.96704 55.7612 3.00845 55.7612 4.09434V35.767C55.7601 36.3636 55.6274 36.9528 55.3724 37.4933C55.1173 38.0339 54.746 38.5127 54.2845 38.8962L41.6148 49.366C40.8609 49.9663 39.9241 50.2962 38.9568 50.3019H26.4938C26.3527 50.3059 26.2173 50.3575 26.1098 50.4481L12.5836 61.5906C12.2701 61.8539 11.8725 61.9989 11.4614 62ZM4.37342 3.50943C4.21676 3.50943 4.06652 3.57106 3.95575 3.68075C3.84498 3.79044 3.78275 3.93921 3.78275 4.09434V46.2075C3.78275 46.3627 3.84498 46.5114 3.95575 46.6211C4.06652 46.7308 4.21676 46.7924 4.37342 46.7924H11.4614C11.9313 46.7924 12.3821 46.9773 12.7144 47.3064C13.0467 47.6355 13.2334 48.0818 13.2334 48.5472V56.5019L23.8358 47.7283C24.5896 47.128 25.5265 46.7982 26.4938 46.7924H38.9568C39.0978 46.7884 39.2333 46.7368 39.3407 46.6462L52.0104 36.2057C52.1319 36.0899 52.2056 35.9335 52.2172 35.767V4.09434C52.2172 3.93921 52.1549 3.79044 52.0442 3.68075C51.9334 3.57106 51.7832 3.50943 51.6265 3.50943H4.37342Z" fill="#FF0068"/>
<path d="M40.0298 31.4627C39.539 31.4627 39.0682 31.2775 38.7211 30.9477C38.3741 30.618 38.1791 30.1708 38.1791 29.7045V15.6388C38.1791 15.1725 38.3741 14.7253 38.7211 14.3956C39.0682 14.0658 39.539 13.8806 40.0298 13.8806C40.5207 13.8806 40.9914 14.0658 41.3385 14.3956C41.6856 14.7253 41.8806 15.1725 41.8806 15.6388V29.7045C41.8806 30.1708 41.6856 30.618 41.3385 30.9477C40.9914 31.2775 40.5207 31.4627 40.0298 31.4627ZM25.2238 31.4627C24.733 31.4627 24.2623 31.2775 23.9152 30.9477C23.5681 30.618 23.3731 30.1708 23.3731 29.7045V15.6388C23.3731 15.1725 23.5681 14.7253 23.9152 14.3956C24.2623 14.0658 24.733 13.8806 25.2238 13.8806C25.7147 13.8806 26.1854 14.0658 26.5325 14.3956C26.8796 14.7253 27.0746 15.1725 27.0746 15.6388V29.7045C27.0746 30.1708 26.8796 30.618 26.5325 30.9477C26.1854 31.2775 25.7147 31.4627 25.2238 31.4627Z" fill="#FF0068"/>
</svg>
