<svg width="77" height="77" viewBox="0 0 77 77" fill="none" xmlns="http://www.w3.org/2000/svg">
<path d="M10.375 40.8438C10.375 25.375 23.0313 12.7188 38.5 12.7188C53.9687 12.7188 66.625 25.375 66.625 40.8438" stroke="#FF0068" stroke-width="2" stroke-miterlimit="10" stroke-linecap="round" stroke-linejoin="round"/>
<path d="M12.7188 38.5H8.03125V43.1875H12.7188V38.5Z" stroke="#FF0068" stroke-width="2" stroke-miterlimit="10" stroke-linecap="round" stroke-linejoin="round"/>
<path d="M68.9688 38.5H64.2812V43.1875H68.9688V38.5Z" stroke="#FF0068" stroke-width="2" stroke-miterlimit="10" stroke-linecap="round" stroke-linejoin="round"/>
<path d="M40.8438 10.375H36.1562V15.0625H40.8438V10.375Z" stroke="#FF0068" stroke-width="2" stroke-miterlimit="10" stroke-linecap="round" stroke-linejoin="round"/>
<path d="M10.375 15.0625C11.6694 15.0625 12.7188 14.0132 12.7188 12.7188C12.7188 11.4243 11.6694 10.375 10.375 10.375C9.08058 10.375 8.03125 11.4243 8.03125 12.7188C8.03125 14.0132 9.08058 15.0625 10.375 15.0625Z" stroke="#FF0068" stroke-width="2" stroke-miterlimit="10" stroke-linecap="round" stroke-linejoin="round"/>
<path d="M66.625 15.0625C67.9194 15.0625 68.9688 14.0132 68.9688 12.7188C68.9688 11.4243 67.9194 10.375 66.625 10.375C65.3306 10.375 64.2812 11.4243 64.2812 12.7188C64.2812 14.0132 65.3306 15.0625 66.625 15.0625Z" stroke="#FF0068" stroke-width="2" stroke-miterlimit="10" stroke-linecap="round" stroke-linejoin="round"/>
<path d="M10.375 12.7188H66.625" stroke="#FF0068" stroke-width="2" stroke-miterlimit="10" stroke-linecap="round" stroke-linejoin="round"/>
<path d="M38.5 24.4375L24.4375 46C28.1875 50.2188 31 55.6094 32.4062 61.9375H38.5H44.5938C46 55.6094 48.8125 49.9844 52.5625 46L38.5 24.4375Z" stroke="#FF0068" stroke-width="2" stroke-miterlimit="10" stroke-linecap="round" stroke-linejoin="round"/>
<path d="M38.5 40.8437V25.1406" stroke="#FF0068" stroke-width="2" stroke-miterlimit="10" stroke-linecap="round" stroke-linejoin="round"/>
<path d="M38.5 50.2188C41.0888 50.2188 43.1875 48.1201 43.1875 45.5312C43.1875 42.9424 41.0888 40.8438 38.5 40.8438C35.9112 40.8438 33.8125 42.9424 33.8125 45.5312C33.8125 48.1201 35.9112 50.2188 38.5 50.2188Z" stroke="#FF0068" stroke-width="2" stroke-miterlimit="10" stroke-linecap="round" stroke-linejoin="round"/>
<path d="M45.5312 61.9375H31.4688V68.9688H45.5312V61.9375Z" stroke="#FF0068" stroke-width="2" stroke-miterlimit="10" stroke-linecap="round" stroke-linejoin="round"/>
<rect x="1" y="1" width="75" height="75" stroke="black"/>
</svg>
