<svg width="101" height="464" viewBox="0 0 101 464" fill="none" xmlns="http://www.w3.org/2000/svg">
<g opacity="0.6">
<path d="M15.903 4.23925L73.5428 1.2652L81.1675 13.4673C75.0353 22.973 68.5462 32.133 61.7001 40.9476L89.6034 61.7489L78.0527 77.6389L51.2364 53.2516L49.9548 54.5772C40.2968 64.6947 30.5631 74.6422 20.7537 84.4197L9.04077 69.2436C18.6667 61.3613 27.9091 52.9781 36.7332 44.1256C44.4669 36.3696 51.6968 28.0804 58.3744 19.3135L15.903 21.3698V4.23925Z" stroke="#FF0068" stroke-width="2"/>
<path d="M27.843 114.007L46.6291 116.998L40.6591 134.214L80.6808 130.815L87.9811 141.692L49.4681 213.562L33.813 205.574L49.1761 176.445L34.2024 173.267L38.5988 160.25C44.3416 161.496 50.0845 162.691 55.8274 163.835L64.6364 147.232L35.0784 149.39L26.967 172.35L10.1115 169.07L27.843 114.007Z" stroke="#FF0068" stroke-width="2"/>
<path d="M11.0037 268.386L41.7297 280.18L35.4677 295.645L3.8656 283.749L11.0037 268.386ZM20.9807 244.39L51.7068 256.286L45.4448 271.666L13.94 259.77L20.9807 244.39ZM24.42 308.052L31.4607 314.119C40.9421 306.654 49.9789 298.589 58.5204 289.969C67.4407 280.942 75.8837 271.411 83.8118 261.418L97.4228 274.844C88.219 284.962 79.0261 294.699 69.8439 304.058C62.8465 311.184 55.73 318.09 48.4947 324.774C46.1586 326.882 43.763 329 41.3079 331.13C38.7384 333.32 35.9281 335.18 32.9369 336.67L14.7187 322.922L24.42 308.052ZM79.1234 261.011L73.2507 244.509L80.2914 241.722L86.6508 258.444L79.1234 261.011ZM91.5501 256.694L85.7748 239.699L93.0102 236.929L99.3371 254.128L91.5501 256.694Z" stroke="#FF0068" stroke-width="2"/>
<path d="M16.0976 407.589L15.3027 390.883L56.3141 389.948L56.1194 368.637L73.8347 368.229L73.7374 389.642L90.5605 389.337V406.331L73.6401 406.637L73.3805 455.667L64.1822 462.124L43.0925 448.903L50.7172 435.783L56.8819 439.369L56.5899 415.27L14.9783 462.124L2 450.126L44.7634 407.079L16.0976 407.589Z" stroke="#FF0068" stroke-width="2"/>
</g>
</svg>
