<svg width="106" height="465" viewBox="0 0 106 465" fill="none" xmlns="http://www.w3.org/2000/svg">
<path d="M16.556 4.97279L76.9032 2L84.886 14.1969C78.4658 23.6985 71.6718 32.8547 64.5042 41.6655L93.7181 62.4581L81.6249 78.3413L53.549 53.9644L52.2072 55.2894C42.0956 65.4026 31.9047 75.3459 21.6345 85.1193L9.37146 69.9495C19.4495 62.0706 29.1261 53.6909 38.3646 44.8422C46.4616 37.0895 54.0311 28.8038 61.0223 20.0406L16.556 22.0961V4.97279Z" stroke="#FF0068" stroke-width="2"/>
<path d="M29.0568 114.695L48.7252 117.685L42.4748 134.893L84.3764 131.495L92.0195 142.367L51.6976 214.208L35.3072 206.223L51.3919 177.107L35.7149 173.93L40.3178 160.918C46.3304 162.164 52.343 163.358 58.3556 164.502L67.5784 147.905L36.6321 150.063L28.1397 173.013L10.4924 169.734L29.0568 114.695Z" stroke="#FF0068" stroke-width="2"/>
<path d="M11.4266 269.01L43.5959 280.799L37.0397 296.258L3.95325 284.366L11.4266 269.01ZM21.8723 245.023L54.0416 256.915L47.4854 272.288L14.5008 260.397L21.8723 245.023ZM25.473 308.658L32.8445 314.723C42.7713 307.262 52.2325 299.2 61.1752 290.584C70.5145 281.56 79.3541 272.033 87.6546 262.045L101.905 275.465C92.2688 285.578 82.644 295.312 73.0306 304.666C65.7045 311.79 58.2538 318.692 50.6786 325.374C48.2327 327.481 45.7246 329.598 43.1543 331.727C40.464 333.916 37.5218 335.775 34.3901 337.265L15.3161 323.523L25.473 308.658ZM82.7459 261.637L76.5974 245.142L83.9688 242.356L90.6269 259.072L82.7459 261.637ZM95.7563 257.322L89.7097 240.335L97.285 237.566L103.909 254.757L95.7563 257.322Z" stroke="#FF0068" stroke-width="2"/>
<path d="M16.7598 408.154L15.9276 391.456L58.8652 390.521L58.6614 369.219L77.2088 368.812L77.1069 390.216L94.7202 389.91V406.897L77.005 407.203L76.7333 456.212L67.1029 462.667L45.0226 449.451L53.0055 436.337L59.4597 439.921L59.154 415.833L15.5879 462.667L2 450.674L46.772 407.645L16.7598 408.154Z" stroke="#FF0068" stroke-width="2"/>
</svg>
