<svg width="64" height="60" viewBox="0 0 64 60" fill="none" xmlns="http://www.w3.org/2000/svg">
<path fill-rule="evenodd" clip-rule="evenodd" d="M0.506014 18.2739C0.506014 10.2995 7.02966 0.5 18.3274 0.5C24.1353 0.5 28.5379 3.5824 31.2587 6.21538C31.5172 6.46556 31.7643 6.71523 32 6.96231C32.2356 6.71523 32.4828 6.46556 32.7413 6.21537C35.462 3.58241 39.8647 0.5 45.6725 0.5C56.9702 0.5 63.4939 10.2995 63.4939 18.2739C63.4939 18.4608 63.4953 18.658 63.4967 18.8695L63.4969 18.8968C63.5062 20.2492 63.5187 22.0699 63.1551 24.1425C62.7192 26.6269 61.7781 29.3603 59.8995 32.5269C56.2195 38.7301 48.8975 46.6596 34.564 57.8959L32 59.906L29.4359 57.8959C15.1024 46.6596 7.78047 38.7301 4.10044 32.5269C2.22189 29.3603 1.28072 26.6269 0.844864 24.1425C0.481245 22.0699 0.493747 20.2492 0.503033 18.8968L0.503221 18.8695C0.504672 18.6578 0.506014 18.461 0.506014 18.2739ZM18.3274 3.5C9.0187 3.5 3.50601 11.6034 3.50601 18.2739C3.50601 18.4722 3.5046 18.6785 3.50317 18.8871L3.50315 18.89C3.49385 20.2471 3.48557 21.8334 3.79974 23.6241C4.16849 25.7261 4.97363 28.1189 6.68058 30.9962C10.0736 36.7157 17.0437 44.3695 31.2868 55.5349L32 56.094L32.7132 55.5349C46.9562 44.3695 53.9263 36.7157 57.3194 30.9962C59.0263 28.1189 59.8315 25.7261 60.2002 23.6241C60.5144 21.8334 60.5061 20.2472 60.4968 18.89L60.4968 18.8883C60.4954 18.6795 60.4939 18.4724 60.4939 18.2739C60.4939 11.6034 54.9812 3.5 45.6725 3.5C40.971 3.5 37.2795 5.99831 34.8276 8.37118C34.1921 8.98611 33.6312 9.60083 33.1481 10.1754L32 11.541L30.8519 10.1754C30.3688 9.60083 29.8078 8.9861 29.1724 8.37119C26.7205 5.99831 23.029 3.5 18.3274 3.5Z" fill="#FF0068"/>
</svg>
