<svg width="45" height="44" viewBox="0 0 45 44" fill="none" xmlns="http://www.w3.org/2000/svg">
<path fill-rule="evenodd" clip-rule="evenodd" d="M17.72 9.84485C19.0217 9.78403 19.4368 9.77051 22.7526 9.77051C26.0684 9.77051 26.4834 9.78515 27.784 9.84485C29.0845 9.90455 29.9723 10.1152 30.7491 10.4205C31.5625 10.7325 32.3005 11.2202 32.9108 11.8511C33.5323 12.4695 34.0116 13.2174 34.3179 14.0442C34.6198 14.8328 34.8262 15.7339 34.8861 17.0519C34.946 18.3754 34.9593 18.7967 34.9593 22.1614C34.9593 25.5272 34.9449 25.9485 34.8861 27.2699C34.8273 28.5878 34.6198 29.489 34.3179 30.2775C34.0116 31.1044 33.5315 31.8536 32.9108 32.4729C32.3005 33.1037 31.5625 33.5903 30.7491 33.9012C29.9723 34.2076 29.0845 34.4172 27.7862 34.478C26.4834 34.5388 26.0684 34.5523 22.7526 34.5523C19.4368 34.5523 19.0217 34.5377 17.72 34.478C16.4217 34.4183 15.5339 34.2076 14.7571 33.9012C13.9425 33.5903 13.2044 33.1029 12.5943 32.4729C11.9733 31.8541 11.4927 31.1053 11.1861 30.2786C10.8853 29.4901 10.6789 28.5889 10.619 27.271C10.5591 25.9474 10.5458 25.5261 10.5458 22.1614C10.5458 18.7956 10.5602 18.3743 10.619 17.0541C10.6778 15.7339 10.8853 14.8328 11.1861 14.0442C11.4932 13.2175 11.9741 12.4687 12.5954 11.8499C13.2047 11.2197 13.942 10.7319 14.756 10.4205C15.5328 10.1152 16.4206 9.90568 17.7189 9.84485H17.72ZM27.6852 12.0752C26.3979 12.0155 26.0118 12.0031 22.7526 12.0031C19.4933 12.0031 19.1072 12.0155 17.8199 12.0752C16.6292 12.1304 15.9833 12.332 15.5528 12.5021C14.9835 12.7274 14.5762 12.9944 14.149 13.4281C13.744 13.828 13.4323 14.3149 13.2368 14.853C13.0693 15.2901 12.8706 15.9457 12.8162 17.1544C12.7574 18.461 12.7452 18.853 12.7452 22.1614C12.7452 25.4698 12.7574 25.8618 12.8162 27.1685C12.8706 28.3772 13.0693 29.0327 13.2368 29.4698C13.4321 30.0071 13.744 30.4949 14.149 30.8948C14.5429 31.3059 15.0234 31.6224 15.5528 31.8207C15.9833 31.9908 16.6292 32.1924 17.8199 32.2476C19.1072 32.3073 19.4922 32.3197 22.7526 32.3197C26.0129 32.3197 26.3979 32.3073 27.6852 32.2476C28.8759 32.1924 29.5218 31.9908 29.9523 31.8207C30.5216 31.5954 30.9289 31.3284 31.3561 30.8948C31.7612 30.4949 32.073 30.0071 32.2683 29.4698C32.4359 29.0327 32.6345 28.3772 32.6889 27.1685C32.7477 25.8618 32.7599 25.4698 32.7599 22.1614C32.7599 18.853 32.7477 18.461 32.6889 17.1544C32.6345 15.9457 32.4359 15.2901 32.2683 14.853C32.0464 14.2752 31.7834 13.8618 31.3561 13.4281C30.9621 13.017 30.4824 12.7006 29.9523 12.5021C29.5218 12.332 28.8759 12.1304 27.6852 12.0752ZM21.1934 25.9812C22.0642 26.3491 23.0337 26.3988 23.9365 26.1217C24.8393 25.8446 25.6194 25.2579 26.1434 24.4619C26.6674 23.6659 26.9029 22.7099 26.8097 21.7571C26.7165 20.8044 26.3003 19.9141 25.6322 19.2383C25.2064 18.8063 24.6915 18.4755 24.1245 18.2697C23.5576 18.064 22.9528 17.9883 22.3536 18.0483C21.7544 18.1083 21.1758 18.3024 20.6594 18.6166C20.143 18.9309 19.7017 19.3574 19.3672 19.8656C19.0327 20.3737 18.8133 20.9508 18.7249 21.5553C18.6365 22.1599 18.6812 22.7768 18.8559 23.3617C19.0305 23.9465 19.3308 24.4848 19.735 24.9378C20.1392 25.3908 20.6373 25.7471 21.1934 25.9812ZM18.3159 17.6579C18.8986 17.0665 19.5902 16.5973 20.3515 16.2773C21.1127 15.9572 21.9286 15.7925 22.7526 15.7925C23.5765 15.7925 24.3924 15.9572 25.1536 16.2773C25.9149 16.5973 26.6065 17.0665 27.1892 17.6579C27.7718 18.2493 28.234 18.9514 28.5493 19.7241C28.8646 20.4968 29.0269 21.325 29.0269 22.1614C29.0269 22.9978 28.8646 23.826 28.5493 24.5987C28.234 25.3714 27.7718 26.0735 27.1892 26.665C26.0125 27.8594 24.4166 28.5304 22.7526 28.5304C21.0885 28.5304 19.4926 27.8594 18.3159 26.665C17.1393 25.4705 16.4782 23.8506 16.4782 22.1614C16.4782 20.4723 17.1393 18.8523 18.3159 17.6579ZM30.4184 16.741C30.5628 16.6027 30.6784 16.4365 30.7583 16.2521C30.8383 16.0676 30.881 15.8688 30.8838 15.6674C30.8867 15.4659 30.8498 15.2659 30.7752 15.0792C30.7005 14.8925 30.5898 14.7229 30.4494 14.5805C30.3091 14.438 30.142 14.3256 29.9581 14.2498C29.7742 14.1741 29.5772 14.1366 29.3787 14.1395C29.1802 14.1425 28.9844 14.1858 28.8027 14.2669C28.621 14.3481 28.4573 14.4654 28.3211 14.612C28.0562 14.897 27.9112 15.2756 27.9168 15.6674C27.9224 16.0592 28.0783 16.4333 28.3512 16.7104C28.6242 16.9874 28.9927 17.1456 29.3787 17.1513C29.7647 17.157 30.1376 17.0098 30.4184 16.741Z" fill="white"/>
</svg>
