<svg width="47" height="45" viewBox="0 0 47 45" fill="none" xmlns="http://www.w3.org/2000/svg">
<path fill-rule="evenodd" clip-rule="evenodd" d="M18.6405 9.65388C20.0267 9.5891 20.4687 9.57471 24 9.57471C27.5313 9.57471 27.9733 9.5903 29.3584 9.65388C30.7435 9.71746 31.6889 9.9418 32.5162 10.2669C33.3825 10.5992 34.1684 11.1187 34.8184 11.7905C35.4802 12.4491 35.9907 13.2456 36.3169 14.1262C36.6384 14.9659 36.8582 15.9256 36.922 17.3292C36.9858 18.7388 37 19.1875 37 22.7708C37 26.3553 36.9846 26.804 36.922 28.2112C36.8594 29.6148 36.6384 30.5745 36.3169 31.4143C35.9907 32.2949 35.4793 33.0928 34.8184 33.7524C34.1684 34.4242 33.3825 34.9424 32.5162 35.2735C31.6889 35.5998 30.7435 35.8229 29.3607 35.8877C27.9733 35.9525 27.5313 35.9669 24 35.9669C20.4687 35.9669 20.0267 35.9513 18.6405 35.8877C17.2577 35.8241 16.3123 35.5998 15.485 35.2735C14.6175 34.9424 13.8314 34.4233 13.1816 33.7524C12.5203 33.0934 12.0085 32.2959 11.6819 31.4155C11.3616 30.5757 11.1418 29.616 11.078 28.2124C11.0142 26.8028 11 26.3541 11 22.7708C11 19.1863 11.0154 18.7376 11.078 17.3316C11.1406 15.9256 11.3616 14.9659 11.6819 14.1262C12.0089 13.2457 12.5211 12.4482 13.1828 11.7893C13.8317 11.1181 14.6169 10.5985 15.4838 10.2669C16.3111 9.9418 17.2565 9.71866 18.6393 9.65388H18.6405ZM29.2532 12.0292C27.8823 11.9656 27.471 11.9524 24 11.9524C20.529 11.9524 20.1177 11.9656 18.7468 12.0292C17.4787 12.088 16.7909 12.3027 16.3324 12.4838C15.7261 12.7238 15.2924 13.0081 14.8374 13.47C14.4061 13.8959 14.0741 14.4144 13.8659 14.9875C13.6875 15.453 13.4759 16.1512 13.418 17.4384C13.3554 18.83 13.3424 19.2474 13.3424 22.7708C13.3424 26.2942 13.3554 26.7116 13.418 28.1032C13.4759 29.3904 13.6875 30.0886 13.8659 30.5541C14.0739 31.1263 14.406 31.6458 14.8374 32.0717C15.2569 32.5095 15.7686 32.8466 16.3324 33.0578C16.7909 33.2389 17.4787 33.4536 18.7468 33.5124C20.1177 33.576 20.5278 33.5892 24 33.5892C27.4722 33.5892 27.8823 33.576 29.2532 33.5124C30.5213 33.4536 31.2091 33.2389 31.6676 33.0578C32.2739 32.8178 32.7076 32.5335 33.1626 32.0717C33.594 31.6458 33.9261 31.1263 34.1341 30.5541C34.3125 30.0886 34.5241 29.3904 34.582 28.1032C34.6446 26.7116 34.6576 26.2942 34.6576 22.7708C34.6576 19.2474 34.6446 18.83 34.582 17.4384C34.5241 16.1512 34.3125 15.453 34.1341 14.9875C33.8977 14.3721 33.6176 13.9318 33.1626 13.47C32.743 13.0322 32.2322 12.6952 31.6676 12.4838C31.2091 12.3027 30.5213 12.088 29.2532 12.0292ZM22.3395 26.8388C23.2669 27.2306 24.2994 27.2835 25.2609 26.9884C26.2224 26.6933 27.0531 26.0685 27.6112 25.2208C28.1693 24.373 28.4201 23.3549 28.3208 22.3403C28.2215 21.3256 27.7783 20.3775 27.0668 19.6577C26.6133 19.1976 26.0649 18.8453 25.4611 18.6262C24.8574 18.4071 24.2132 18.3266 23.5751 18.3904C22.937 18.4543 22.3208 18.661 21.7709 18.9957C21.2209 19.3303 20.7509 19.7846 20.3946 20.3258C20.0384 20.8669 19.8048 21.4815 19.7106 22.1253C19.6165 22.7692 19.6641 23.4262 19.8501 24.049C20.0361 24.6719 20.3558 25.2452 20.7863 25.7276C21.2168 26.21 21.7472 26.5895 22.3395 26.8388ZM19.2751 17.9746C19.8956 17.3448 20.6322 16.8452 21.4429 16.5043C22.2536 16.1634 23.1225 15.988 24 15.988C24.8775 15.988 25.7464 16.1634 26.5571 16.5043C27.3678 16.8452 28.1044 17.3448 28.7249 17.9746C29.3454 18.6045 29.8376 19.3522 30.1734 20.1751C30.5092 20.9981 30.682 21.8801 30.682 22.7708C30.682 23.6615 30.5092 24.5436 30.1734 25.3665C29.8376 26.1894 29.3454 26.9371 28.7249 27.567C27.4718 28.839 25.7722 29.5536 24 29.5536C22.2278 29.5536 20.5282 28.839 19.2751 27.567C18.022 26.295 17.318 24.5697 17.318 22.7708C17.318 20.9719 18.022 19.2467 19.2751 17.9746ZM32.164 16.9981C32.3178 16.8509 32.4409 16.6738 32.526 16.4774C32.6111 16.281 32.6566 16.0693 32.6597 15.8548C32.6628 15.6402 32.6234 15.4272 32.5439 15.2284C32.4645 15.0296 32.3465 14.849 32.197 14.6972C32.0476 14.5455 31.8696 14.4258 31.6738 14.3451C31.4779 14.2645 31.2681 14.2245 31.0567 14.2276C30.8454 14.2308 30.6368 14.2769 30.4433 14.3633C30.2498 14.4498 30.0754 14.5747 29.9304 14.7308C29.6483 15.0343 29.4938 15.4375 29.4998 15.8548C29.5058 16.272 29.6718 16.6705 29.9625 16.9655C30.2531 17.2606 30.6457 17.4291 31.0567 17.4351C31.4678 17.4412 31.865 17.2845 32.164 16.9981Z" fill="#FF0068"/>
</svg>
