<svg width="237" height="61" viewBox="0 0 237 61" fill="none" xmlns="http://www.w3.org/2000/svg">
<path d="M89.0964 26.8706C88.7342 27.6569 88.1976 28.3499 87.5275 28.8967C86.8167 29.4618 86.0051 29.8862 85.1359 30.1473C84.1333 30.4432 83.0921 30.5869 82.047 30.5735C80.4615 30.5707 78.8882 30.2941 77.3963 29.7561C75.8481 29.2062 74.4255 28.351 73.2127 27.2409L75.9111 23.9991C76.8068 24.7338 77.7906 25.3534 78.8396 25.8436C79.8717 26.3098 80.9917 26.548 82.1237 26.5423C82.8957 26.5872 83.664 26.405 84.3341 26.0183C84.5814 25.8704 84.7848 25.659 84.9233 25.406C85.0618 25.153 85.1304 24.8675 85.122 24.579V24.5161C85.1296 24.2441 85.0748 23.974 84.9616 23.7267C84.8278 23.4538 84.6231 23.222 84.3689 23.0559C83.9648 22.8087 83.5345 22.6072 83.086 22.4551C82.5421 22.2595 81.8309 22.0499 80.9942 21.8333C80.0106 21.6011 79.042 21.3094 78.0936 20.96C77.311 20.6864 76.5767 20.2903 75.9181 19.7862C75.3222 19.3253 74.8442 18.729 74.5236 18.0465C74.173 17.2289 74.0064 16.3439 74.0355 15.4545V15.3916C74.0206 14.5059 74.2016 13.6279 74.5654 12.8206C74.9156 12.0599 75.4244 11.3833 76.0575 10.8364C76.7294 10.2648 77.5063 9.83047 78.3446 9.55783C79.2931 9.25319 80.284 9.10224 81.2801 9.11069C82.7042 9.10271 84.1191 9.33901 85.4636 9.80935C86.7271 10.2671 87.9054 10.933 88.95 11.7796L86.5723 15.2309C85.7171 14.6342 84.8009 14.1307 83.839 13.7288C82.9944 13.3684 82.0865 13.1807 81.1685 13.1769C80.4609 13.1269 79.7563 13.3083 79.1604 13.6939C78.9482 13.8381 78.774 14.0316 78.6525 14.2579C78.5311 14.4842 78.4661 14.7365 78.4631 14.9934V15.0493C78.4576 15.3541 78.5245 15.6558 78.6583 15.9296C78.8201 16.2239 79.0619 16.4662 79.3556 16.6283C79.7981 16.868 80.2658 17.0578 80.7501 17.1942C81.3358 17.3688 82.0749 17.5784 82.9744 17.816C83.925 18.0646 84.8569 18.3798 85.7635 18.7592C86.522 19.0602 87.228 19.48 87.8553 20.0028C88.448 20.4527 88.9259 21.0369 89.2498 21.7075C89.5542 22.4517 89.7014 23.251 89.6821 24.055V24.1179C89.689 25.0672 89.4891 26.0067 89.0964 26.8706Z" fill="white"/>
<path d="M106.681 30.28V21.8961H98.2096V30.28H93.6356V9.43896H98.2096V17.6832H106.681V9.43896H111.255V30.28H106.681Z" fill="white"/>
<path d="M116.443 30.28V9.43896H121.017V30.28H116.443Z" fill="white"/>
<path d="M140.792 30.28L130.716 17.0055V30.28H126.205V9.43896H130.423L140.185 22.2664V9.43896H144.703V30.28H140.792Z" fill="white"/>
<path d="M149.912 30.28V9.43896H154.486V30.28H149.912Z" fill="white"/>
<path d="M174.734 29.6651C173.133 30.3394 171.409 30.6702 169.672 30.6363C168.161 30.6533 166.66 30.3806 165.252 29.8328C163.948 29.3359 162.761 28.5748 161.765 27.5971C160.791 26.6325 160.027 25.4765 159.52 24.2016C158.975 22.8405 158.702 21.3853 158.718 19.9188V19.856C158.701 17.7382 159.313 15.6633 160.476 13.8952C161.64 12.1272 163.302 10.7462 165.252 9.92799C166.643 9.34931 168.138 9.06164 169.644 9.08261C170.494 9.07652 171.343 9.1396 172.182 9.27125C172.906 9.39301 173.617 9.57769 174.309 9.82319C174.951 10.0587 175.568 10.3583 176.15 10.7175C176.731 11.0826 177.283 11.4913 177.802 11.9401L174.916 15.4334C174.539 15.1132 174.143 14.8169 173.73 14.5461C173.34 14.2892 172.927 14.0694 172.496 13.8894C172.047 13.701 171.58 13.5605 171.102 13.4702C170.561 13.3681 170.013 13.319 169.463 13.3235C168.657 13.3184 167.861 13.4976 167.134 13.8475C166.416 14.1861 165.769 14.6605 165.231 15.2448C164.68 15.8453 164.247 16.5445 163.955 17.3058C163.645 18.1103 163.489 18.9658 163.494 19.828V19.8839C163.484 20.7851 163.64 21.6804 163.955 22.5248C164.247 23.303 164.69 24.0154 165.258 24.6208C165.82 25.2192 166.499 25.6949 167.253 26.0181C168.056 26.3557 168.92 26.5246 169.791 26.5142C171.325 26.5665 172.836 26.1231 174.1 25.2496V22.2384H169.498V18.277H178.527V27.3596C177.384 28.312 176.106 29.089 174.734 29.6651Z" fill="white"/>
<path d="M198.434 30.2801L196.531 25.6061H187.738L185.835 30.2801H181.17L190.081 9.32031H194.307L203.218 30.2801H198.434ZM192.159 14.7978L189.37 21.5538H194.899L192.159 14.7978Z" fill="white"/>
<path d="M222.706 30.28V16.6701L216.849 25.571H216.731L210.943 16.7679V30.28H206.425V9.43896H211.362L216.849 18.2491L222.316 9.43896H227.245V30.28H222.706Z" fill="white"/>
<path d="M232.426 30.28V9.43896H237V30.28H232.426Z" fill="white"/>
<path d="M53.6893 9.28519V4.65308H48.9897V0H44.2971V14.1339H48.9897V18.6472H25.5129V14.1339H30.2124V0H25.5129V4.65308H20.8203V9.28519H16.1277V56.298H20.9179V61H53.8009V56.298H58.3819V9.28519H53.6893ZM35.0096 46.9499H25.6523V32.7322H35.0096V46.9499ZM49.0804 46.9499H39.744V32.7322H49.0804V46.9499Z" fill="white"/>
<path d="M82.061 49.0043C81.8452 49.477 81.523 49.8931 81.1197 50.2199C80.6958 50.5751 80.2049 50.8412 79.6763 51.0024C79.0747 51.182 78.4493 51.2692 77.8216 51.2609C76.8708 51.2591 75.9274 51.0937 75.0325 50.7719C74.1033 50.4393 73.2498 49.9238 72.5224 49.2558L74.154 47.2995C74.6905 47.7462 75.2837 48.1198 75.9181 48.4104C76.5399 48.6919 77.216 48.8326 77.8983 48.8226C78.3632 48.8488 78.8257 48.7396 79.2301 48.5082C79.3787 48.419 79.501 48.2917 79.5843 48.1394C79.6677 47.9872 79.709 47.8154 79.7042 47.6419V47.579C79.7063 47.4154 79.673 47.2533 79.6066 47.1039C79.5172 46.9447 79.3872 46.8122 79.2301 46.7196C78.9855 46.5717 78.7261 46.4499 78.4561 46.3563C78.1284 46.2376 77.6961 46.1118 77.1731 45.9791C76.5898 45.8393 76.0148 45.6667 75.4509 45.462C74.9801 45.2994 74.5378 45.0636 74.1401 44.7634C73.7834 44.4813 73.497 44.1202 73.3033 43.7084C73.0935 43.2167 72.9936 42.6849 73.0105 42.1504C73.0013 41.616 73.1109 41.0862 73.3312 40.5994C73.5394 40.1414 73.8438 39.7338 74.2237 39.4047C74.6352 39.0614 75.1086 38.8005 75.6182 38.6361C76.1898 38.4492 76.7881 38.3571 77.3893 38.3637C78.2503 38.3551 79.1064 38.4945 79.9204 38.7759C80.6784 39.0531 81.3853 39.4545 82.0122 39.9636L80.6176 42.0596C80.102 41.7005 79.5505 41.3961 78.9721 41.1513C78.4626 40.9338 77.9152 40.8198 77.3614 40.816C76.9357 40.7843 76.5115 40.8949 76.1551 41.1304C76.0301 41.2188 75.9281 41.336 75.8577 41.4722C75.7873 41.6084 75.7506 41.7595 75.7507 41.9129V41.9198C75.7445 42.1041 75.7853 42.2868 75.8693 42.4508C75.9685 42.6221 76.1134 42.7624 76.2876 42.856C76.5524 43.0004 76.8332 43.113 77.1243 43.1914C77.473 43.3032 77.9192 43.4289 78.4631 43.5687C79.0404 43.7172 79.6066 43.9063 80.1574 44.1346C80.6121 44.3197 81.0355 44.5742 81.4125 44.8891C81.7457 45.1702 82.0105 45.5239 82.1865 45.9232C82.3647 46.367 82.4524 46.8421 82.4445 47.3205V47.3554C82.4413 47.9268 82.3102 48.4903 82.061 49.0043Z" fill="white"/>
<path d="M90.6443 41.053V51.0579H87.8552V41.053H84.0412V38.5029H94.4234V41.053H90.6443Z" fill="white"/>
<path d="M107.023 48.0816C106.79 48.7447 106.414 49.3482 105.921 49.8492C105.429 50.3267 104.835 50.6873 104.185 50.9041C103.452 51.1441 102.684 51.2621 101.912 51.2535C100.455 51.3329 99.0259 50.8304 97.9377 49.8562C96.9662 48.9246 96.4828 47.5273 96.4874 45.6642V38.5029H99.2765V45.6013C99.2099 46.437 99.4587 47.2672 99.9737 47.9278C100.229 48.1936 100.539 48.401 100.882 48.536C101.225 48.6711 101.593 48.7305 101.961 48.7104C102.326 48.7305 102.692 48.6738 103.034 48.5439C103.376 48.4139 103.688 48.2136 103.948 47.9558C104.462 47.3191 104.712 46.5084 104.645 45.6921V38.5029H107.379V45.5873C107.403 46.433 107.283 47.2765 107.023 48.0816Z" fill="white"/>
<path d="M121.422 47.2575C121.098 48.0098 120.623 48.6875 120.027 49.2487C119.421 49.821 118.711 50.2716 117.935 50.5761C117.076 50.9052 116.163 51.0688 115.244 51.0582H110.363V38.4823H115.244C116.162 38.473 117.075 38.634 117.935 38.9574C118.714 39.2517 119.426 39.7008 120.027 40.2779C120.623 40.8339 121.097 41.507 121.422 42.2551C121.746 43.0364 121.91 43.8752 121.903 44.7214C121.917 45.5908 121.753 46.454 121.422 47.2575ZM119.023 44.7772C119.025 44.2566 118.931 43.7401 118.744 43.2542C118.569 42.8074 118.308 42.3992 117.977 42.0525C117.64 41.7111 117.233 41.4465 116.785 41.277C116.294 41.0846 115.771 40.9897 115.244 40.9975H113.117V48.564H115.244C115.769 48.5693 116.291 48.4793 116.785 48.2985C117.234 48.1248 117.641 47.8555 117.977 47.509C118.306 47.1688 118.567 46.7678 118.744 46.3283C118.933 45.8431 119.028 45.3261 119.023 44.8052V44.7772Z" fill="white"/>
<path d="M124.622 51.0583V38.4824H127.411V51.0583H124.622Z" fill="white"/>
<path d="M142.939 47.2991C142.619 48.0846 142.146 48.7982 141.548 49.3981C140.949 49.9979 140.237 50.472 139.453 50.7924C138.603 51.141 137.693 51.3168 136.775 51.3094C135.86 51.3183 134.951 51.1425 134.105 50.7924C133.324 50.466 132.614 49.9916 132.013 49.395C131.415 48.8144 130.94 48.1179 130.618 47.348C130.289 46.5509 130.123 45.6955 130.13 44.8328V44.7909C130.125 43.9277 130.294 43.0723 130.625 42.2757C131.279 40.6942 132.533 39.4376 134.112 38.7824C135.83 38.1025 137.742 38.1025 139.46 38.7824C140.239 39.1116 140.949 39.5857 141.552 40.1797C142.15 40.7604 142.624 41.4568 142.946 42.2268C143.276 43.0239 143.442 43.8793 143.434 44.742C143.448 45.6195 143.279 46.4904 142.939 47.2991ZM140.561 44.7769C140.565 44.2561 140.471 43.7393 140.283 43.2538C140.094 42.7845 139.812 42.3588 139.453 42.0032C139.103 41.6317 138.68 41.3364 138.211 41.1357C137.742 40.9349 137.236 40.8331 136.726 40.8365C136.2 40.828 135.677 40.9303 135.192 41.1369C134.746 41.3352 134.345 41.6229 134.014 41.9823C133.683 42.3448 133.423 42.7667 133.247 43.2259C133.058 43.7088 132.964 44.2234 132.968 44.742C132.965 45.265 133.06 45.7839 133.247 46.272C133.608 47.2057 134.322 47.9589 135.234 48.368C135.716 48.5731 136.234 48.6787 136.758 48.6787C137.281 48.6787 137.8 48.5731 138.281 48.368C138.733 48.1758 139.14 47.8901 139.474 47.5296C139.805 47.1645 140.065 46.7403 140.241 46.279C140.43 45.7988 140.525 45.2863 140.52 44.7699L140.561 44.7769Z" fill="white"/>
<path d="M1.31086 9.57863L6.75649 9.30615L7.45375 10.41C6.87735 11.2671 6.26376 12.0938 5.61298 12.8903L8.24863 14.7697L7.18182 16.2019L4.65075 13.9732L4.52524 14.092C3.6188 15.0072 2.69841 15.9015 1.73619 16.7888L0.697266 15.4474C1.62695 14.7347 2.49853 13.9779 3.31201 13.1767C4.04314 12.4766 4.72572 11.7273 5.35499 10.934L1.34572 11.1227L1.31086 9.57863Z" fill="white"/>
<path d="M2.4404 19.4858L4.18356 19.7583L3.64667 21.3093L7.42584 21.0089L8.1231 21.987L4.49733 28.4776L3.01913 27.7789L4.45549 25.152L3.06097 24.8655L3.4863 23.6638L5.11092 23.9852L5.94067 22.4901L3.15161 22.6857L2.38462 24.7817L0.766968 24.4533L2.4404 19.4858Z" fill="white"/>
<path d="M0.850662 33.431L3.75128 34.4929L3.15861 35.8903L0.174316 34.8143L0.850662 33.431ZM1.79197 31.2651L4.69259 32.3341L4.09991 33.7314L1.12957 32.6485L1.79197 31.2651ZM2.09179 37.0291L2.78906 37.581C3.68342 36.9049 4.53568 36.1746 5.34104 35.3942C6.1855 34.5801 6.98395 33.7194 7.73266 32.8162L9.01562 34.0318C8.14404 34.9471 7.27944 35.8274 6.40786 36.6728C5.75243 37.3155 5.07608 37.9373 4.39276 38.5382C4.17661 38.7338 3.94651 38.9225 3.6955 39.1181C3.45369 39.3145 3.18915 39.4811 2.90759 39.6141L1.19929 38.3495L2.09179 37.0291ZM7.25852 32.7812L6.70768 31.2931L7.37008 31.0416L7.96973 32.5507L7.25852 32.7812ZM8.42992 32.397L7.88606 30.8599L8.58332 30.6084L9.18994 32.1385L8.42992 32.397Z" fill="white"/>
<path d="M1.33177 45.9998L1.25507 44.4907L5.12489 44.4068V42.4785H6.79832V44.4138H8.38808V45.9509H6.79135V50.3734L5.92674 50.9603L3.89073 49.7306L4.588 48.5429L5.1737 48.8713V46.6914L1.22021 50.9253L0 49.8424L4.03716 45.9509L1.33177 45.9998Z" fill="white"/>
</svg>
