<svg width="60" height="60" viewBox="0 0 60 60" fill="none" xmlns="http://www.w3.org/2000/svg">
<g clip-path="url(#clip0_89_46)">
<path d="M59.7778 58.0718L19.3695 0.520816C19.0626 0.0836729 18.5077 -0.104041 17.9984 0.0568566C17.4892 0.217755 17.1429 0.690163 17.1429 1.22441V58.7754C17.1429 59.4517 17.6911 59.9999 18.3674 59.9999H58.7755C59.2324 59.9999 59.6513 59.7455 59.862 59.3402C60.0728 58.9347 60.0402 58.4457 59.7778 58.0718ZM19.5919 57.5509V53.8775H23.2653V51.4285H19.5919V45.306H23.2653V42.8571H19.5919V36.7346H23.2653V34.2856H19.5919V28.1632H23.2653V25.7142H19.5919V19.5918H23.2653V17.1428H19.5919V5.09931L56.4196 57.5509H19.5919Z" fill="#FF0068"/>
<path d="M27.551 48.9796H40.4082C40.872 48.9796 41.2959 48.7175 41.5034 48.3027C41.7108 47.8878 41.666 47.3914 41.3878 47.0204L28.5306 29.8775C28.2143 29.4558 27.6639 29.2838 27.1638 29.4505C26.6639 29.6172 26.3265 30.0852 26.3265 30.6122V47.7551C26.3265 48.4314 26.8747 48.9796 27.551 48.9796ZM28.7755 34.2857L37.9592 46.5306H28.7755V34.2857Z" fill="#FF0068"/>
<path d="M13.4694 0H1.22449C0.548204 0 0 0.548204 0 1.22449V58.7755C0 59.4518 0.548204 60 1.22449 60H13.4694C14.1457 60 14.6939 59.4518 14.6939 58.7755V1.22449C14.6939 0.548204 14.1457 0 13.4694 0ZM12.2449 57.551H2.44898V52.0408H7.34694V49.5918H2.44898V42.2449H7.34694V39.7959H2.44898V31.2245H7.34694V28.7755H2.44898V20.2041H7.34694V17.7551H2.44898V10.4082H7.34694V7.95918H2.44898V2.44898H12.2449V57.551Z" fill="#FF0068"/>
</g>
<defs>
<clipPath id="clip0_89_46">
<rect width="60" height="60" fill="white"/>
</clipPath>
</defs>
</svg>
