<svg width="43" height="44" viewBox="0 0 43 44" fill="none" xmlns="http://www.w3.org/2000/svg">
<path d="M34.536 14.1682C33.5772 14.6076 32.5473 14.9045 31.4645 15.0387C32.5817 14.3473 33.4176 13.259 33.8161 11.977C32.7664 12.6219 31.6176 13.0758 30.4196 13.3191C29.614 12.4294 28.5469 11.8397 27.384 11.6415C26.2212 11.4433 25.0276 11.6478 23.9886 12.2232C22.9496 12.7985 22.1233 13.7126 21.6381 14.8234C21.1528 15.9343 21.0357 17.1797 21.3049 18.3665C19.178 18.256 17.0974 17.6842 15.198 16.6882C13.2985 15.6922 11.6228 14.2943 10.2796 12.5851C9.8203 13.4046 9.5562 14.3547 9.5562 15.3665C9.55569 16.2774 9.77257 17.1744 10.1876 17.9778C10.6026 18.7812 11.203 19.4663 11.9353 19.9722C11.086 19.9442 10.2553 19.7068 9.51257 19.2798V19.351C9.51248 20.6286 9.93975 21.8669 10.7219 22.8557C11.504 23.8446 12.5928 24.5231 13.8035 24.7761C13.0156 24.9967 12.1895 25.0292 11.3876 24.8711C11.7292 25.9704 12.3946 26.9317 13.2907 27.6204C14.1867 28.3091 15.2686 28.6908 16.3847 28.7119C14.49 30.2504 12.1499 31.0849 9.74107 31.0812C9.31436 31.0814 8.88802 31.0556 8.46423 31.004C10.9094 32.6301 13.7557 33.4931 16.6626 33.4897C26.503 33.4897 31.8824 25.06 31.8824 17.7489C31.8824 17.5114 31.8767 17.2715 31.8664 17.034C32.9127 16.2513 33.816 15.2821 34.5337 14.1718L34.536 14.1682Z" fill="white"/>
</svg>
