<svg width="45" height="45" viewBox="0 0 45 45" fill="none" xmlns="http://www.w3.org/2000/svg">
<path d="M36.383 14.2586C35.3619 14.7265 34.2651 15.0427 33.1119 15.1857C34.3017 14.4493 35.1919 13.2903 35.6163 11.925C34.4984 12.6118 33.275 13.0952 31.9991 13.3542C31.1411 12.4067 30.0047 11.7787 28.7663 11.5677C27.5279 11.3566 26.2567 11.5744 25.1502 12.1871C24.0437 12.7999 23.1638 13.7733 22.647 14.9564C22.1302 16.1394 22.0054 17.4658 22.2922 18.7297C20.0271 18.612 17.8112 18.0031 15.7884 16.9424C13.7655 15.8816 11.9809 14.3928 10.5504 12.5726C10.0612 13.4453 9.77999 14.4571 9.77999 15.5348C9.77945 16.5049 10.0104 17.4601 10.4524 18.3157C10.8944 19.1713 11.5338 19.9009 12.3137 20.4397C11.4092 20.4099 10.5246 20.1571 9.73352 19.7023V19.7782C9.73343 21.1388 10.1885 22.4575 11.0214 23.5106C11.8543 24.5637 13.0139 25.2863 14.3033 25.5558C13.4642 25.7907 12.5844 25.8253 11.7304 25.657C12.0942 26.8277 12.8029 27.8514 13.7571 28.5849C14.7114 29.3184 15.8636 29.7248 17.0523 29.7474C15.0344 31.3858 12.5423 32.2745 9.97687 32.2706C9.52244 32.2708 9.06839 32.2433 8.61707 32.1884C11.2211 33.9202 14.2524 34.8392 17.3482 34.8357C27.828 34.8357 33.557 25.8581 33.557 18.072C33.557 17.819 33.5509 17.5635 33.5399 17.3105C34.6543 16.477 35.6162 15.4448 36.3806 14.2624L36.383 14.2586Z" fill="#FF0068"/>
</svg>
