<svg width="37" height="43" viewBox="0 0 37 43" fill="none" xmlns="http://www.w3.org/2000/svg">
<path fill-rule="evenodd" clip-rule="evenodd" d="M18.5 42.1626C17.7992 42.1626 17.1271 41.885 16.6316 41.3909C16.136 40.8967 15.8576 40.2265 15.8576 39.5277L15.8576 9.00003L4.51652 20.3142C4.27085 20.5592 3.97919 20.7535 3.65819 20.8861C3.3372 21.0187 2.99316 21.0869 2.64572 21.0869C2.29828 21.0869 1.95424 21.0187 1.63325 20.8861C1.31225 20.7535 1.02059 20.5592 0.774912 20.3142C0.529238 20.0692 0.334352 19.7784 0.201395 19.4583C0.0684337 19.1382 1.82819e-06 18.7952 1.79873e-06 18.4487C1.76928e-06 18.1023 0.0684336 17.7592 0.201395 17.4391C0.334352 17.119 0.529238 16.8282 0.774912 16.5832L16.6292 0.773943C16.8746 0.528566 17.1662 0.333891 17.4873 0.201059C17.8083 0.0682238 18.1524 -0.000147079 18.5 -0.00014711C18.8476 -0.000147141 19.1917 0.0682236 19.5127 0.201059C19.8338 0.333891 20.1253 0.528566 20.3708 0.773943L36.2251 16.5832C36.4708 16.8282 36.6656 17.119 36.7986 17.4391C36.9316 17.7592 37 18.1022 37 18.4487C37 18.7952 36.9316 19.1382 36.7986 19.4583C36.6656 19.7784 36.4708 20.0692 36.2251 20.3142C35.7289 20.809 35.056 21.0869 34.3543 21.0869C34.0068 21.0869 33.6628 21.0187 33.3418 20.8861C33.0208 20.7535 32.7292 20.5592 32.4835 20.3142L21.1424 9.00003L21.1424 39.5277C21.1424 40.2265 20.864 40.8967 20.3684 41.3909C19.8729 41.885 19.2008 42.1626 18.5 42.1626Z" fill="#FF0068"/>
</svg>
