<svg width="29" height="18" viewBox="0 0 29 18" fill="none" xmlns="http://www.w3.org/2000/svg">
<path d="M26.583 2.4H18.1248V0H26.583V2.4ZM28.6686 14.4C28.1345 15.9564 26.2169 18 22.505 18C18.7906 18 15.7819 15.9252 15.7819 11.19C15.7819 6.498 18.5912 4.086 22.3866 4.086C26.1106 4.086 28.3847 6.2244 28.8813 9.3972C28.9755 10.0044 29.013 10.8228 28.9961 11.9652H19.2969C19.454 15.8184 23.5055 15.9396 24.8406 14.4H28.6686ZM19.3815 9.6H25.3808C25.2539 7.7436 24.0081 6.9372 22.3878 6.9372C20.6164 6.9372 19.6364 7.8588 19.3815 9.6ZM7.813 17.9856H0V0.0251999H8.40145C15.0182 0.1224 15.1439 6.558 11.6881 8.3124C15.8701 9.8244 16.0102 17.9856 7.813 17.9856ZM3.62496 7.2H7.95558C10.986 7.2 11.467 3.6 7.57858 3.6H3.62496V7.2ZM7.72237 10.8H3.62496V14.4192H7.66196C11.3534 14.4192 11.1274 10.8 7.72237 10.8Z" fill="black"/>
</svg>
