<svg width="28" height="29" viewBox="0 0 28 29" fill="none" xmlns="http://www.w3.org/2000/svg">
<path fill-rule="evenodd" clip-rule="evenodd" d="M8.12814 0.0862145C9.6029 0.0156753 10.0731 0 13.8298 0C17.5865 0 18.0567 0.0169816 19.5302 0.0862145C21.0037 0.155447 22.0095 0.399722 22.8896 0.753724C23.8111 1.11556 24.6472 1.68118 25.3387 2.4127C26.0427 3.12985 26.5859 3.99722 26.9329 4.95603C27.2749 5.87043 27.5087 6.91545 27.5766 8.4438C27.6445 9.97868 27.6596 10.4672 27.6596 14.3691C27.6596 18.2723 27.6432 18.7608 27.5766 20.2931C27.51 21.8214 27.2749 22.8664 26.9329 23.7808C26.5859 24.7398 26.0418 25.6086 25.3387 26.3268C24.6472 27.0583 23.8111 27.6226 22.8896 27.9831C22.0095 28.3385 21.0037 28.5814 19.5327 28.652C18.0567 28.7225 17.5865 28.7382 13.8298 28.7382C10.0731 28.7382 9.6029 28.7212 8.12814 28.652C6.65716 28.5827 5.65135 28.3385 4.77128 27.9831C3.84835 27.6226 3.01215 27.0573 2.32089 26.3268C1.61731 25.6092 1.07283 24.7408 0.725435 23.7821C0.38472 22.8677 0.15087 21.8227 0.0829787 20.2944C0.015087 18.7595 0 18.2709 0 14.3691C0 10.4659 0.0163443 9.97737 0.0829787 8.44641C0.149613 6.91545 0.38472 5.87043 0.725435 4.95603C1.07335 3.99733 1.61823 3.12895 2.32215 2.41139C3.01243 1.68053 3.84779 1.11484 4.77002 0.753724C5.6501 0.399722 6.6559 0.156754 8.12689 0.0862145H8.12814ZM19.4183 2.67265C17.9599 2.60342 17.5223 2.58905 13.8298 2.58905C10.1372 2.58905 9.69971 2.60342 8.2413 2.67265C6.89226 2.73666 6.16054 2.97048 5.67273 3.16773C5.02776 3.42899 4.56634 3.73858 4.0823 4.24149C3.62346 4.70529 3.27034 5.2699 3.04884 5.89394C2.85899 6.40077 2.63395 7.16103 2.57234 8.56267C2.50571 10.078 2.49188 10.5325 2.49188 14.3691C2.49188 18.2056 2.50571 18.6602 2.57234 20.1755C2.63395 21.5771 2.85899 22.3374 3.04884 22.8442C3.27012 23.4673 3.6234 24.033 4.0823 24.4967C4.52863 24.9735 5.07302 25.3405 5.67273 25.5704C6.16054 25.7677 6.89226 26.0015 8.2413 26.0655C9.69971 26.1348 10.136 26.1491 13.8298 26.1491C17.5236 26.1491 17.9599 26.1348 19.4183 26.0655C20.7673 26.0015 21.499 25.7677 21.9868 25.5704C22.6318 25.3092 23.0932 24.9996 23.5773 24.4967C24.0362 24.033 24.3895 23.4673 24.6107 22.8442C24.8006 22.3374 25.0256 21.5771 25.0872 20.1755C25.1539 18.6602 25.1677 18.2056 25.1677 14.3691C25.1677 10.5325 25.1539 10.078 25.0872 8.56267C25.0256 7.16103 24.8006 6.40077 24.6107 5.89394C24.3593 5.22382 24.0613 4.74441 23.5773 4.24149C23.1309 3.76479 22.5874 3.39791 21.9868 3.16773C21.499 2.97048 20.7673 2.73666 19.4183 2.67265ZM12.0633 18.7987C13.0499 19.2254 14.1483 19.2829 15.1712 18.9616C16.194 18.6403 17.0778 17.9599 17.6715 17.0368C18.2652 16.1137 18.532 15.0051 18.4264 13.9003C18.3207 12.7955 17.8492 11.763 17.0924 10.9793C16.6099 10.4783 16.0265 10.0947 15.3842 9.85608C14.7419 9.61747 14.0566 9.52979 13.3778 9.59935C12.699 9.66892 12.0434 9.894 11.4584 10.2584C10.8733 10.6228 10.3733 11.1174 9.99429 11.7067C9.6153 12.296 9.36678 12.9652 9.26661 13.6663C9.16644 14.3673 9.21712 15.0827 9.41499 15.761C9.61287 16.4392 9.95302 17.0634 10.411 17.5887C10.8689 18.114 11.4332 18.5272 12.0633 18.7987ZM8.80329 9.14658C9.46338 8.46075 10.247 7.91672 11.1095 7.54555C11.9719 7.17438 12.8963 6.98334 13.8298 6.98334C14.7633 6.98334 15.6877 7.17438 16.5501 7.54555C17.4126 7.91672 18.1962 8.46075 18.8563 9.14658C19.5164 9.83241 20.04 10.6466 20.3972 11.5427C20.7545 12.4388 20.9383 13.3992 20.9383 14.3691C20.9383 15.339 20.7545 16.2994 20.3972 17.1955C20.04 18.0916 19.5164 18.9058 18.8563 19.5916C17.5232 20.9767 15.7151 21.7548 13.8298 21.7548C11.9445 21.7548 10.1364 20.9767 8.80329 19.5916C7.47018 18.2065 6.72124 16.3279 6.72124 14.3691C6.72124 12.4103 7.47018 10.5317 8.80329 9.14658ZM22.5149 8.08326C22.6785 7.92294 22.8094 7.73015 22.9 7.5163C22.9906 7.30246 23.0389 7.0719 23.0422 6.83829C23.0455 6.60467 23.0036 6.37275 22.9191 6.15625C22.8345 5.93975 22.7091 5.74308 22.55 5.57787C22.391 5.41266 22.2017 5.28228 21.9934 5.19445C21.785 5.10661 21.5618 5.06311 21.3369 5.06652C21.1121 5.06992 20.8902 5.12017 20.6844 5.21428C20.4785 5.30838 20.293 5.44444 20.1387 5.61439C19.8386 5.94492 19.6743 6.38395 19.6807 6.83829C19.687 7.29262 19.8636 7.72649 20.1728 8.04779C20.4821 8.36909 20.8997 8.55252 21.3369 8.55914C21.7742 8.56576 22.1968 8.39506 22.5149 8.08326Z" fill="black"/>
</svg>
