<svg width="28" height="29" viewBox="0 0 28 29" fill="none" xmlns="http://www.w3.org/2000/svg">
<path fill-rule="evenodd" clip-rule="evenodd" d="M8.74231 0.871612C10.1857 0.802573 10.6459 0.787231 14.3226 0.787231C17.9994 0.787231 18.4596 0.803852 19.9017 0.871612C21.3439 0.939371 22.3283 1.17845 23.1896 1.52492C24.0916 1.87906 24.9099 2.43264 25.5867 3.1486C26.2758 3.85049 26.8073 4.6994 27.1469 5.63781C27.4816 6.53275 27.7105 7.55554 27.777 9.05137C27.8434 10.5536 27.8582 11.0318 27.8582 14.8506C27.8582 18.6707 27.8422 19.1489 27.777 20.6485C27.7118 22.1444 27.4816 23.1672 27.1469 24.0621C26.8073 25.0006 26.2749 25.851 25.5867 26.5539C24.9099 27.2698 24.0916 27.8221 23.1896 28.175C22.3283 28.5227 21.3439 28.7605 19.9042 28.8296C18.4596 28.8986 17.9994 28.914 14.3226 28.914C10.6459 28.914 10.1857 28.8973 8.74231 28.8296C7.30262 28.7618 6.31822 28.5227 5.45687 28.175C4.55358 27.8221 3.73517 27.2689 3.05862 26.5539C2.37 25.8516 1.83712 25.0016 1.49711 24.0634C1.16364 23.1684 0.93477 22.1456 0.868323 20.6498C0.801875 19.1476 0.787109 18.6694 0.787109 14.8506C0.787109 11.0305 0.803106 10.5523 0.868323 9.05393C0.933539 7.55554 1.16364 6.53275 1.49711 5.63781C1.83762 4.69951 2.37091 3.84961 3.05985 3.14732C3.73544 2.43201 4.55303 1.87835 5.45564 1.52492C6.31699 1.17845 7.30139 0.94065 8.74108 0.871612H8.74231ZM19.7922 3.40302C18.3648 3.33526 17.9366 3.32119 14.3226 3.32119C10.7087 3.32119 10.2804 3.33526 8.85306 3.40302C7.53273 3.46566 6.81658 3.69451 6.33914 3.88756C5.70789 4.14326 5.2563 4.44626 4.78255 4.93848C4.33348 5.39241 3.98787 5.94501 3.77108 6.55577C3.58527 7.05182 3.36501 7.7959 3.30472 9.16772C3.2395 10.6508 3.22597 11.0957 3.22597 14.8506C3.22597 18.6055 3.2395 19.0504 3.30472 20.5335C3.36501 21.9053 3.58527 22.6494 3.77108 23.1454C3.98765 23.7553 4.33342 24.3088 4.78255 24.7627C5.21938 25.2294 5.75219 25.5886 6.33914 25.8136C6.81658 26.0067 7.53273 26.2355 8.85306 26.2982C10.2804 26.3659 10.7074 26.38 14.3226 26.38C17.9379 26.38 18.3648 26.3659 19.7922 26.2982C21.1126 26.2355 21.8287 26.0067 22.3062 25.8136C22.9374 25.5579 23.389 25.2549 23.8627 24.7627C24.3119 24.3088 24.6576 23.7553 24.8742 23.1454C25.06 22.6494 25.2803 21.9053 25.3406 20.5335C25.4058 19.0504 25.4193 18.6055 25.4193 14.8506C25.4193 11.0957 25.4058 10.6508 25.3406 9.16772C25.2803 7.7959 25.06 7.05182 24.8742 6.55577C24.6281 5.8999 24.3365 5.4307 23.8627 4.93848C23.4258 4.47192 22.894 4.11285 22.3062 3.88756C21.8287 3.69451 21.1126 3.46566 19.7922 3.40302ZM12.5938 19.1859C13.5593 19.6035 14.6344 19.6599 15.6355 19.3454C16.6366 19.0309 17.5015 18.365 18.0826 17.4616C18.6636 16.5581 18.9248 15.4731 18.8214 14.3917C18.7181 13.3104 18.2566 12.3 17.5158 11.5329C17.0436 11.0426 16.4726 10.6671 15.844 10.4336C15.2153 10.2001 14.5447 10.1143 13.8803 10.1823C13.2159 10.2504 12.5743 10.4707 12.0017 10.8274C11.4291 11.184 10.9397 11.6681 10.5688 12.2448C10.1978 12.8216 9.95459 13.4766 9.85655 14.1627C9.75851 14.8488 9.80812 15.549 10.0018 16.2128C10.1954 16.8767 10.5284 17.4876 10.9766 18.0017C11.4248 18.5158 11.9771 18.9203 12.5938 19.1859ZM9.40309 9.7392C10.0491 9.06796 10.8161 8.53551 11.6602 8.17224C12.5043 7.80897 13.409 7.62199 14.3226 7.62199C15.2363 7.62199 16.141 7.80896 16.9851 8.17224C17.8292 8.53551 18.5962 9.06796 19.2422 9.7392C19.8882 10.4104 20.4007 11.2073 20.7503 12.0843C21.1 12.9613 21.2799 13.9013 21.2799 14.8506C21.2799 15.7999 21.1 16.7398 20.7503 17.6169C20.4007 18.4939 19.8882 19.2907 19.2422 19.962C17.9375 21.3176 16.1678 22.0792 14.3226 22.0792C12.4775 22.0792 10.7078 21.3176 9.40309 19.962C8.09835 18.6064 7.36535 16.7677 7.36535 14.8506C7.36535 12.9334 8.09835 11.0948 9.40309 9.7392ZM22.823 8.69851C22.9831 8.5416 23.1112 8.35291 23.1999 8.14361C23.2885 7.93432 23.3358 7.70867 23.3391 7.48002C23.3423 7.25138 23.3013 7.02439 23.2185 6.8125C23.1358 6.60061 23.013 6.40811 22.8574 6.24642C22.7017 6.08473 22.5165 5.95712 22.3125 5.87116C22.1086 5.78519 21.8901 5.74262 21.6701 5.74595C21.45 5.74928 21.2328 5.79846 21.0314 5.89056C20.8299 5.98267 20.6483 6.11583 20.4973 6.28217C20.2036 6.60566 20.0428 7.03535 20.049 7.48002C20.0553 7.92469 20.2281 8.34933 20.5307 8.66379C20.8334 8.97825 21.2421 9.15778 21.6701 9.16426C22.098 9.17074 22.5116 9.00367 22.823 8.69851Z" fill="black"/>
</svg>
