<svg width="30" height="31" viewBox="0 0 30 31" fill="none" xmlns="http://www.w3.org/2000/svg">
<path fill-rule="evenodd" clip-rule="evenodd" d="M21.7184 18.5459C21.3467 18.3538 19.5247 17.4279 19.1855 17.299C18.8463 17.1713 18.5994 17.1081 18.3512 17.4924C18.1043 17.8741 17.3947 18.7381 17.1789 18.9934C16.9619 19.25 16.7462 19.2809 16.3758 19.0901C16.0054 18.8967 14.8106 18.493 13.3952 17.1881C12.294 16.1719 11.5495 14.9172 11.3337 14.5329C11.118 14.1499 11.31 13.9423 11.4958 13.7515C11.6629 13.58 11.8662 13.304 12.052 13.0809C12.2379 12.8566 12.299 12.6967 12.4224 12.44C12.5471 12.1847 12.4848 11.9616 12.3913 11.7695C12.299 11.5774 11.5582 9.69079 11.2489 8.92352C10.9484 8.17689 10.6428 8.27876 10.4158 8.26587C10.1988 8.25555 9.95192 8.25297 9.70499 8.25297C9.45806 8.25297 9.05649 8.3484 8.71728 8.73267C8.37682 9.11566 7.42029 10.0428 7.42029 11.9294C7.42029 13.8147 8.74721 15.6368 8.93303 15.8934C9.11885 16.1487 11.5457 20.0198 15.2633 21.6794C16.1488 22.074 16.8384 22.31 17.3759 22.4854C18.2639 22.7781 19.072 22.7369 19.7105 22.6376C20.4214 22.5279 21.9029 21.7104 22.2122 20.8155C22.5203 19.9205 22.5203 19.1533 22.428 18.9934C22.3357 18.8335 22.0888 18.7381 21.7171 18.5459H21.7184ZM14.9566 28.0922H14.9516C12.7435 28.0926 10.5759 27.4789 8.67613 26.3153L8.22717 26.0393L3.56049 27.3056L4.80635 22.6014L4.51328 22.1192C3.27882 20.0873 2.62553 17.7358 2.6289 15.3363C2.6314 8.30842 8.16107 2.5907 14.9615 2.5907C18.2539 2.5907 21.3492 3.9189 23.6763 6.32772C24.8241 7.50967 25.7339 8.91523 26.353 10.4631C26.972 12.0109 27.2881 13.6703 27.283 15.3453C27.2805 22.3732 21.7508 28.0922 14.9566 28.0922ZM25.4472 4.49789C24.0732 3.06772 22.4382 1.93373 20.6372 1.16165C18.8362 0.38957 16.905 -0.0052564 14.9553 5.28413e-05C6.78177 5.28413e-05 0.127205 6.87964 0.124711 15.335C0.120923 18.0259 0.803604 20.6702 2.10387 23.0012L0 30.9485L7.86176 28.8156C10.0366 30.0408 12.4737 30.6828 14.9503 30.6829H14.9566C23.1301 30.6829 29.7847 23.8033 29.7872 15.3466C29.7932 13.3315 29.4127 11.3351 28.6678 9.4729C27.9229 7.61075 26.8282 5.91981 25.4472 4.49789Z" fill="black"/>
</svg>
