<svg width="46" height="45" viewBox="0 0 46 45" fill="none" xmlns="http://www.w3.org/2000/svg">
<path fill-rule="evenodd" clip-rule="evenodd" d="M29.7681 25.6492C29.4262 25.4727 27.75 24.6224 27.4379 24.504C27.1258 24.3867 26.8986 24.3287 26.6703 24.6816C26.4431 25.0322 25.7903 25.8256 25.5918 26.0601C25.3922 26.2958 25.1937 26.3242 24.8529 26.1489C24.5122 25.9713 23.413 25.6006 22.1108 24.4021C21.0977 23.4689 20.4127 22.3167 20.2142 21.9638C20.0158 21.612 20.1924 21.4214 20.3634 21.2461C20.5171 21.0886 20.7042 20.8352 20.8751 20.6303C21.0461 20.4242 21.1023 20.2774 21.2159 20.0417C21.3306 19.8072 21.2732 19.6024 21.1872 19.4259C21.1023 19.2495 20.4208 17.5169 20.1362 16.8123C19.8597 16.1266 19.5786 16.2201 19.3698 16.2083C19.1702 16.1988 18.943 16.1964 18.7158 16.1964C18.4886 16.1964 18.1192 16.2841 17.8071 16.637C17.4939 16.9887 16.6139 17.8402 16.6139 19.5728C16.6139 21.3041 17.8347 22.9775 18.0056 23.2131C18.1766 23.4476 20.4093 27.0028 23.8295 28.5269C24.6441 28.8893 25.2786 29.106 25.7731 29.267C26.59 29.5359 27.3335 29.498 27.9209 29.4068C28.5749 29.3061 29.9379 28.5553 30.2225 27.7334C30.5059 26.9116 30.5059 26.2069 30.421 26.0601C30.3361 25.9132 30.1089 25.8256 29.767 25.6492H29.7681ZM23.5473 34.4162H23.5427C21.5112 34.4166 19.5171 33.8529 17.7693 32.7843L17.3562 32.5308L13.0629 33.6938L14.2091 29.3736L13.9395 28.9307C12.8037 27.0647 12.2027 24.9052 12.2058 22.7015C12.2081 16.2474 17.2954 10.9964 23.5519 10.9964C26.5808 10.9964 29.4285 12.2162 31.5695 14.4284C32.6254 15.5138 33.4624 16.8046 34.032 18.2261C34.6015 19.6476 34.8923 21.1716 34.8876 22.7098C34.8853 29.164 29.798 34.4162 23.5473 34.4162ZM33.1987 12.7479C31.9345 11.4345 30.4304 10.3931 28.7735 9.68401C27.1166 8.97496 25.3398 8.61236 23.5461 8.61724C16.0265 8.61724 9.90426 14.9352 9.90197 22.7004C9.89848 25.1716 10.5265 27.6001 11.7228 29.7407L9.78723 37.0393L17.0201 35.0805C19.0209 36.2057 21.263 36.7953 23.5415 36.7953H23.5473C31.0669 36.7953 37.1891 30.4773 37.1914 22.711C37.197 20.8604 36.8469 19.0269 36.1616 17.3168C35.4763 15.6067 34.4692 14.0537 33.1987 12.7479Z" fill="#FF0068"/>
</svg>
