<svg width="44" height="44" viewBox="0 0 44 44" fill="none" xmlns="http://www.w3.org/2000/svg">
<path fill-rule="evenodd" clip-rule="evenodd" d="M27.9518 24.8638C27.6308 24.6981 26.0568 23.8997 25.7637 23.7885C25.4707 23.6784 25.2574 23.6239 25.043 23.9553C24.8297 24.2845 24.2167 25.0295 24.0303 25.2497C23.8429 25.471 23.6565 25.4977 23.3365 25.3331C23.0165 25.1663 21.9845 24.8182 20.7617 23.6929C19.8104 22.8166 19.1672 21.7347 18.9809 21.4033C18.7945 21.073 18.9604 20.894 19.1209 20.7294C19.2653 20.5815 19.4409 20.3436 19.6014 20.1512C19.7619 19.9577 19.8147 19.8198 19.9214 19.5985C20.0291 19.3784 19.9752 19.186 19.8944 19.0203C19.8147 18.8546 19.1748 17.2278 18.9076 16.5661C18.648 15.9223 18.384 16.0101 18.1879 15.999C18.0005 15.9901 17.7872 15.9879 17.5739 15.9879C17.3605 15.9879 17.0136 16.0702 16.7206 16.4016C16.4265 16.7318 15.6002 17.5313 15.6002 19.1582C15.6002 20.7839 16.7465 22.3552 16.907 22.5764C17.0675 22.7966 19.164 26.1348 22.3755 27.566C23.1404 27.9062 23.7362 28.1097 24.2005 28.261C24.9676 28.5134 25.6657 28.4778 26.2173 28.3922C26.8314 28.2977 28.1112 27.5926 28.3784 26.8209C28.6445 26.0492 28.6445 25.3876 28.5648 25.2497C28.4851 25.1118 28.2718 25.0295 27.9507 24.8638H27.9518ZM22.1105 33.0959H22.1062C20.1987 33.0963 18.3262 32.567 16.6851 31.5636L16.2972 31.3256L12.2658 32.4176L13.3421 28.361L13.0889 27.9451C12.0225 26.193 11.4582 24.1652 11.4611 22.0961C11.4632 16.0357 16.2401 11.1051 22.1148 11.1051C24.959 11.1051 27.6329 12.2505 29.6432 14.3277C30.6348 15.3469 31.4207 16.559 31.9555 17.8937C32.4902 19.2285 32.7633 20.6595 32.7588 22.1039C32.7567 28.1642 27.9798 33.0959 22.1105 33.0959ZM31.173 12.7498C29.986 11.5165 28.5737 10.5386 27.0178 9.87282C25.462 9.20703 23.7937 8.86656 22.1094 8.87114C15.0486 8.87114 9.29995 14.8036 9.2978 22.095C9.29452 24.4154 9.88427 26.6957 11.0075 28.7058L9.19006 35.559L15.9816 33.7197C17.8603 34.7763 19.9656 35.3298 22.1051 35.3299H22.1105C29.1713 35.3299 34.92 29.3974 34.9221 22.105C34.9273 20.3672 34.5987 18.6457 33.9551 17.0399C33.3116 15.4341 32.366 13.9759 31.173 12.7498Z" fill="white"/>
</svg>
