<svg width="37" height="39" viewBox="0 0 37 39" fill="none" xmlns="http://www.w3.org/2000/svg">
<path fill-rule="evenodd" clip-rule="evenodd" d="M18.5 38.398C17.7992 38.398 17.1271 38.1451 16.6316 37.6951C16.136 37.2451 15.8576 36.6348 15.8576 35.9983L15.8576 8.19647L4.51652 18.5004C4.27085 18.7235 3.97919 18.9005 3.65819 19.0212C3.3372 19.142 2.99316 19.2041 2.64572 19.2041C2.29828 19.2041 1.95424 19.142 1.63325 19.0212C1.31225 18.9005 1.02059 18.7235 0.774912 18.5004C0.529238 18.2773 0.334352 18.0124 0.201395 17.7209C0.0684335 17.4294 1.62547e-06 17.117 1.59301e-06 16.8015C1.56055e-06 16.486 0.0684334 16.1735 0.201395 15.882C0.334352 15.5905 0.529237 15.3257 0.774911 15.1025L16.6292 0.704889C16.8746 0.481424 17.1662 0.304128 17.4873 0.183157C17.8083 0.0621848 18.1524 -8.25231e-05 18.5 -8.25489e-05C18.8476 -8.25747e-05 19.1917 0.0621847 19.5127 0.183156C19.8338 0.304128 20.1253 0.481424 20.3708 0.704889L36.2251 15.1025C36.4708 15.3256 36.6656 15.5905 36.7986 15.882C36.9316 16.1735 37 16.4859 37 16.8015C37 17.117 36.9316 17.4294 36.7986 17.7209C36.6656 18.0124 36.4708 18.2773 36.2251 18.5004C35.7289 18.951 35.056 19.2041 34.3543 19.2041C34.0068 19.2041 33.6628 19.142 33.3418 19.0212C33.0208 18.9005 32.7292 18.7235 32.4835 18.5004L21.1424 8.19647L21.1424 35.9983C21.1424 36.6348 20.864 37.2451 20.3684 37.6951C19.8729 38.1451 19.2008 38.398 18.5 38.398Z" fill="#FFFAFC"/>
</svg>
