<svg width="30" height="19" viewBox="0 0 30 19" fill="none" xmlns="http://www.w3.org/2000/svg">
<path d="M26.8258 3.02978H18.5475V0.680847H26.8258V3.02978ZM28.867 14.7745C28.3443 16.2978 26.4675 18.2979 22.8345 18.2979C19.1991 18.2979 16.2544 16.2672 16.2544 11.6328C16.2544 7.04059 19.004 4.67991 22.7186 4.67991C26.3634 4.67991 28.5891 6.77281 29.0751 9.87811C29.1674 10.4724 29.204 11.2734 29.1875 12.3915H19.6947C19.8484 16.1627 23.8137 16.2813 25.1205 14.7745H28.867ZM19.7774 10.0766H25.6491C25.5249 8.25969 24.3057 7.47045 22.7198 7.47045C20.9861 7.47045 20.027 8.37244 19.7774 10.0766ZM8.45511 18.2838H0.80835V0.705511H9.03105C15.507 0.800643 15.63 7.09932 12.2477 8.81639C16.3408 10.2962 16.478 18.2838 8.45511 18.2838ZM4.35618 7.72766H8.59466C11.5607 7.72766 12.0313 4.20425 8.22569 4.20425H4.35618V7.72766ZM8.36642 11.2511H4.35618V14.7933H8.30729C11.9202 14.7933 11.699 11.2511 8.36642 11.2511Z" fill="black"/>
</svg>
