<svg width="60" height="60" viewBox="0 0 60 60" fill="none" xmlns="http://www.w3.org/2000/svg">
<path fill-rule="evenodd" clip-rule="evenodd" d="M43.8689 35.8752C43.1318 35.5084 39.5177 33.7408 38.8449 33.4946C38.1721 33.2509 37.6823 33.1303 37.19 33.8639C36.7002 34.5926 35.2927 36.242 34.8647 36.7295C34.4343 37.2194 34.0064 37.2784 33.2717 36.9141C32.537 36.5448 30.1672 35.7743 27.3596 33.2829C25.1753 31.343 23.6986 28.9476 23.2706 28.214C22.8427 27.4828 23.2236 27.0865 23.5922 26.7221C23.9237 26.3947 24.3269 25.8679 24.6954 25.442C25.064 25.0136 25.1852 24.7083 25.4301 24.2184C25.6775 23.731 25.5538 23.3051 25.3683 22.9383C25.1852 22.5715 23.7159 18.9698 23.1024 17.505C22.5062 16.0796 21.9002 16.2741 21.45 16.2495C21.0196 16.2298 20.5298 16.2249 20.04 16.2249C19.5502 16.2249 18.7537 16.407 18.0808 17.1407C17.4055 17.8718 15.5082 19.6419 15.5082 23.2435C15.5082 26.8427 18.1402 30.3213 18.5088 30.8112C18.8773 31.2987 23.6911 38.6891 31.0652 41.8574C32.8215 42.6108 34.1894 43.0613 35.2556 43.3961C37.0169 43.9549 38.6198 43.8761 39.8863 43.6866C41.2963 43.4773 44.2351 41.9165 44.8485 40.208C45.4595 38.4995 45.4595 37.0347 45.2765 36.7295C45.0934 36.4242 44.6036 36.242 43.8665 35.8752H43.8689ZM30.4567 54.1001H30.4468C26.0669 54.1009 21.7675 52.9292 17.9992 50.7077L17.1087 50.1809L7.85215 52.5984L10.3234 43.6176L9.74205 42.6969C7.29344 38.8179 5.99762 34.3286 6.00431 29.7477C6.00926 16.3307 16.9776 5.41497 30.4665 5.41497C36.9971 5.41497 43.1367 7.95066 47.7526 12.5494C50.0294 14.8058 51.8339 17.4892 53.0618 20.4442C54.2898 23.3992 54.9168 26.5672 54.9065 29.7649C54.9016 43.1819 43.9333 54.1001 30.4567 54.1001ZM51.2653 9.05602C48.5397 6.32566 45.2968 4.16076 41.7245 2.68677C38.1521 1.21279 34.3214 0.45902 30.4542 0.469156C14.2417 0.469156 1.04211 13.603 1.03716 29.7452C1.02965 34.8825 2.38377 39.9308 4.96289 44.3808L0.789795 59.5531L16.3839 55.4812C20.6977 57.8202 25.5318 59.0458 30.4443 59.0459H30.4567C46.6692 59.0459 59.8687 45.9121 59.8737 29.7674C59.8856 25.9202 59.131 22.1089 57.6534 18.5538C56.1758 14.9988 54.0045 11.7706 51.2653 9.05602Z" fill="black"/>
</svg>
