<svg width="114" height="558" viewBox="0 0 114 558" fill="none" xmlns="http://www.w3.org/2000/svg">
<g opacity="0.35" clip-path="url(#clip0_315_2)">
<path d="M8.31975 66.9782L7.90725 51.1517L96.3138 48.0202V64.6468L64.034 65.529L63.1814 65.5523L63.0699 66.3978C62.311 72.1496 61.1798 77.844 59.7056 83.4813C58.2329 89.1129 56.3876 94.6141 54.2286 99.9849C52.1686 105.074 49.6111 109.923 46.555 114.546L28.6498 106.89C32.516 101.161 35.6384 95.0169 38.0298 88.472L38.0306 88.4695C40.5358 81.5568 42.5282 74.508 43.9924 67.2936L44.2421 66.063L42.9869 66.095L8.31975 66.9782ZM88.5018 25.5062L82.2781 9.03328L88.7131 6.63985L95.4268 23.364L88.5018 25.5062ZM21.4853 17.7634L81.5115 15.3263L81.9277 32.5228L21.5926 34.6274L21.4853 17.7634ZM103.122 20.7146L96.9887 3.68399L103.648 1.27263L110.38 18.5532L103.122 20.7146Z" stroke="white" stroke-width="2"/>
<path d="M1.43955 205.544L1.02475 188.818L24.1665 188.49L25.2246 188.475L25.1498 187.419L23.6145 165.763L40.4785 164.124L42.0145 187.332L42.0771 188.277L43.0237 188.266L62.8132 188.043L63.8743 188.031L63.7995 186.972C63.1312 177.517 62.3222 168.103 61.3589 158.717L78.7402 155.729C80.1239 166.107 81.1857 176.499 81.939 186.877L82.0071 187.816L82.9487 187.804L109.657 187.474V204.214L83.6133 204.545L82.626 204.557V205.544C82.626 209.879 82.5513 214.244 82.4021 218.638C82.0884 224.259 81.5958 229.804 80.9096 235.303C80.2238 240.799 79.2844 246.267 78.1059 251.736C76.9875 256.913 75.5322 261.928 73.7532 266.768C67.7523 266.146 61.8124 265.464 55.9335 264.721C58.1593 257.354 60.0306 249.877 61.5342 242.265C63.1174 234.249 64.1427 226.114 64.595 217.829L64.596 217.812L64.5963 217.795C64.6716 214.041 64.6715 210.037 64.5964 205.75L64.5789 204.757L63.585 204.768L44.1403 204.991L43.0924 205.003L43.1535 206.05L45.0478 238.498L28.6199 240.531L26.3945 206.15L26.3332 205.202L25.3829 205.215L1.43955 205.544ZM100.308 160.43L106.503 158.149L112.708 175.425L106.016 177.553L100.308 160.43ZM98.6901 180.25L92.322 182.359L86.626 165.796L92.5982 163.534L98.6901 180.25Z" stroke="white" stroke-width="2"/>
<path d="M86.9037 309.843L100.409 322.034C94.5021 325.973 85.9841 332.034 74.863 340.209L74.4518 340.512L74.4553 341.022L74.9132 407.027L55.7689 407.445L56.6656 355.333L56.6992 353.377L55.0939 354.495C41.379 364.053 28.7997 371.796 17.3542 377.73L9.68579 361.672C22.3913 354.494 36.2263 345.66 51.2317 335.161C66.178 324.702 78.0554 316.272 86.9037 309.843Z" stroke="white" stroke-width="2"/>
<path d="M62.1242 508.19C73.1133 499.356 83.8428 489.698 94.2849 479.23L107.324 494.672C95.5443 504.95 83.8662 514.827 72.3178 524.29L72.3131 524.294C63.5138 531.595 54.4746 538.629 45.2102 545.41L45.202 545.416L45.1938 545.422C42.2284 547.688 39.1884 549.849 36.1035 551.893C33.2198 553.803 29.9697 555.456 26.3491 556.835L7.72824 540.057L19.6166 525.89L26.2049 532.743L26.7677 533.328L27.4561 532.898C39.3046 525.487 50.8505 517.256 62.1242 508.19ZM62.1242 508.19L61.4976 507.411M62.1242 508.19L61.4976 507.411M61.4976 507.411C50.2536 516.453 38.7396 524.661 26.9258 532.05L93.6374 478.463C83.2009 488.929 72.4783 498.583 61.4976 507.411ZM43.7409 494.612L8.94411 478.188L17.0321 461.619L51.6888 479.432L43.7409 494.612Z" stroke="white" stroke-width="2"/>
</g>
<defs>
<clipPath id="clip0_315_2">
<rect width="114" height="558" fill="white"/>
</clipPath>
</defs>
</svg>
