<svg width="84" height="84" viewBox="0 0 84 84" fill="none" xmlns="http://www.w3.org/2000/svg">
<path d="M10.5 44.625C10.5 27.3 24.675 13.125 42 13.125C59.325 13.125 73.5 27.3 73.5 44.625" stroke="white" stroke-width="3" stroke-miterlimit="10" stroke-linecap="round" stroke-linejoin="round"/>
<path d="M13.125 42H7.875V47.25H13.125V42Z" stroke="white" stroke-width="3" stroke-miterlimit="10" stroke-linecap="round" stroke-linejoin="round"/>
<path d="M76.125 42H70.875V47.25H76.125V42Z" stroke="white" stroke-width="3" stroke-miterlimit="10" stroke-linecap="round" stroke-linejoin="round"/>
<path d="M44.625 10.5H39.375V15.75H44.625V10.5Z" stroke="white" stroke-width="3" stroke-miterlimit="10" stroke-linecap="round" stroke-linejoin="round"/>
<path d="M10.5 15.75C11.9497 15.75 13.125 14.5747 13.125 13.125C13.125 11.6753 11.9497 10.5 10.5 10.5C9.05025 10.5 7.875 11.6753 7.875 13.125C7.875 14.5747 9.05025 15.75 10.5 15.75Z" stroke="white" stroke-width="3" stroke-miterlimit="10" stroke-linecap="round" stroke-linejoin="round"/>
<path d="M73.5 15.75C74.9497 15.75 76.125 14.5747 76.125 13.125C76.125 11.6753 74.9497 10.5 73.5 10.5C72.0503 10.5 70.875 11.6753 70.875 13.125C70.875 14.5747 72.0503 15.75 73.5 15.75Z" stroke="white" stroke-width="3" stroke-miterlimit="10" stroke-linecap="round" stroke-linejoin="round"/>
<path d="M10.5 13.125H73.5" stroke="white" stroke-width="3" stroke-miterlimit="10" stroke-linecap="round" stroke-linejoin="round"/>
<path d="M42 26.25L26.25 50.4C30.45 55.125 33.6 61.1625 35.175 68.25H42H48.825C50.4 61.1625 53.55 54.8625 57.75 50.4L42 26.25Z" stroke="white" stroke-width="3" stroke-miterlimit="10" stroke-linecap="round" stroke-linejoin="round"/>
<path d="M42 44.625V27.0375" stroke="white" stroke-width="3" stroke-miterlimit="10" stroke-linecap="round" stroke-linejoin="round"/>
<path d="M42 55.125C44.8995 55.125 47.25 52.7745 47.25 49.875C47.25 46.9755 44.8995 44.625 42 44.625C39.1005 44.625 36.75 46.9755 36.75 49.875C36.75 52.7745 39.1005 55.125 42 55.125Z" stroke="white" stroke-width="3" stroke-miterlimit="10" stroke-linecap="round" stroke-linejoin="round"/>
<path d="M49.875 68.25H34.125V76.125H49.875V68.25Z" stroke="white" stroke-width="4" stroke-miterlimit="10" stroke-linecap="round" stroke-linejoin="round"/>
</svg>
