<svg width="414" height="45" viewBox="0 0 414 45" fill="none" xmlns="http://www.w3.org/2000/svg">
<g clip-path="url(#clip0_310_45)">
<path d="M96.8574 30.2592H108.882V35.3044H89.5786V31.7446L101.158 15.6185H90.0738V10.5732H108.381V14.1331L96.8574 30.2592Z" fill="white"/>
<path d="M118.625 25.1135C119.001 26.8998 119.86 28.2661 121.208 29.225C122.556 30.1776 124.199 30.6602 126.142 30.6602C128.838 30.6602 130.857 29.6888 132.205 27.7459L136.387 30.1901C134.067 33.6059 130.638 35.3106 126.098 35.3106C122.274 35.3106 119.189 34.1449 116.845 31.8134C114.494 29.4819 113.321 26.53 113.321 22.9576C113.321 19.4541 114.481 16.5147 116.801 14.1518C119.12 11.789 122.092 10.6045 125.728 10.6045C129.177 10.6045 131.998 11.8078 134.211 14.2208C136.418 16.6337 137.521 19.5606 137.521 23.0014C137.521 23.5342 137.459 24.2361 137.333 25.1135H118.625ZM118.581 20.9833H132.393C132.048 19.0718 131.258 17.6365 130.023 16.6651C128.788 15.6936 127.34 15.211 125.678 15.211C123.798 15.211 122.23 15.725 120.982 16.7591C119.722 17.7869 118.926 19.1971 118.581 20.9833Z" fill="white"/>
<path d="M161.596 10.5859H167.433L157.784 35.3234H151.596L141.948 10.5859H147.785L154.712 29.4383L161.596 10.5859Z" fill="white"/>
<path d="M177.176 25.1135C177.552 26.8998 178.411 28.2661 179.759 29.225C181.107 30.1776 182.75 30.6602 184.693 30.6602C187.389 30.6602 189.408 29.6888 190.756 27.7459L194.937 30.1901C192.618 33.6059 189.188 35.3106 184.649 35.3106C180.825 35.3106 177.74 34.1449 175.395 31.8134C173.044 29.4819 171.872 26.53 171.872 22.9576C171.872 19.4541 173.032 16.5147 175.352 14.1518C177.671 11.789 180.643 10.6045 184.279 10.6045C187.728 10.6045 190.549 11.8078 192.762 14.2208C194.969 16.6337 196.072 19.5606 196.072 23.0014C196.072 23.5342 196.01 24.2361 195.884 25.1135H177.176ZM177.132 20.9833H190.944C190.599 19.0718 189.809 17.6365 188.574 16.6651C187.339 15.6936 185.891 15.211 184.229 15.211C182.348 15.211 180.781 15.725 179.533 16.7591C178.273 17.7869 177.471 19.1971 177.132 20.9833Z" fill="white"/>
<path d="M243.131 35.9439C239.677 35.9439 236.736 34.7531 234.316 32.3652C231.896 29.9774 230.686 27.0379 230.686 23.5533C230.686 20.0686 231.896 17.1292 234.316 14.7413C236.736 12.3534 239.67 11.1626 243.131 11.1626C246.617 11.1626 249.564 12.3597 251.971 14.7413C254.372 17.1292 255.576 20.0686 255.576 23.5533C255.576 27.0379 254.372 29.9774 251.971 32.3652C249.564 34.7531 246.617 35.9439 243.131 35.9439ZM237.896 28.8743C239.313 30.2907 241.056 30.9927 243.131 30.9927C245.206 30.9927 246.949 30.2845 248.36 28.8743C249.777 27.4579 250.479 25.6842 250.479 23.547C250.479 21.4098 249.771 19.6361 248.36 18.2197C246.949 16.8033 245.2 16.1013 243.131 16.1013C241.056 16.1013 239.313 16.8095 237.896 18.2197C236.485 19.6361 235.777 21.4098 235.777 23.547C235.777 25.6905 236.485 27.4641 237.896 28.8743Z" fill="white"/>
<path d="M80.2496 10.6046V13.5879C78.0803 11.7076 75.2528 10.5732 72.1682 10.5732C65.347 10.5732 59.7985 16.1199 59.7985 22.9388C59.7985 29.7578 65.347 35.3044 72.1682 35.3044C75.259 35.3044 78.0803 34.1638 80.2496 32.2898V35.3044H85.146V10.6046H80.2496ZM72.1682 30.4159C68.0429 30.4159 64.6949 27.0628 64.6949 22.9451C64.6949 18.8274 68.0491 15.4744 72.1682 15.4744C76.2872 15.4744 79.6414 18.8274 79.6414 22.9451C79.6414 27.0628 76.2872 30.4159 72.1682 30.4159Z" fill="white"/>
<path d="M221.276 0.589355V13.2433C219.069 11.338 216.204 10.1785 213.063 10.1785C206.135 10.1785 200.492 15.8129 200.492 22.7446C200.492 29.6764 206.129 35.3108 213.063 35.3108C216.197 35.3108 219.069 34.1513 221.276 32.246V34.9786H226.247V0.589355H221.276ZM213.063 30.3345C208.875 30.3345 205.47 26.9313 205.47 22.7446C205.47 18.558 208.875 15.1548 213.063 15.1548C217.251 15.1548 220.655 18.558 220.655 22.7446C220.655 26.9313 217.251 30.3345 213.063 30.3345Z" fill="white"/>
<path d="M294.698 24.6062C295.068 26.3611 295.914 27.7085 297.243 28.6487C298.566 29.5888 300.184 30.0588 302.096 30.0588C304.748 30.0588 306.735 29.1062 308.058 27.1946L312.171 29.595C309.889 32.9544 306.516 34.634 302.046 34.634C298.284 34.634 295.249 33.4871 292.936 31.1932C290.623 28.8994 289.469 25.9913 289.469 22.4815C289.469 19.0282 290.61 16.1452 292.892 13.8137C295.174 11.4885 298.102 10.3228 301.676 10.3228C305.067 10.3228 307.845 11.5073 310.02 13.8826C312.196 16.258 313.28 19.1347 313.28 22.5254C313.28 23.0519 313.218 23.7413 313.099 24.6062H294.698ZM294.654 20.5386H308.246C307.908 18.6584 307.13 17.242 305.914 16.2893C304.698 15.3367 303.268 14.8541 301.638 14.8541C299.789 14.8541 298.246 15.3618 297.017 16.3771C295.776 17.3924 294.992 18.7838 294.654 20.5386Z" fill="white"/>
<path d="M323.657 17.3235C323.657 18.0819 324.083 18.6836 324.936 19.1285C325.788 19.5673 326.816 19.9746 328.008 20.3444C329.205 20.7142 330.428 21.0902 331.681 21.4788C332.935 21.8674 333.982 22.5819 334.822 23.6223C335.663 24.6689 336.083 25.9851 336.083 27.5707C336.083 29.7894 335.23 31.5317 333.518 32.7915C331.807 34.0575 329.656 34.6842 327.067 34.6842C324.785 34.6842 322.829 34.2079 321.193 33.249C319.556 32.2964 318.371 30.9677 317.632 29.2755L321.932 26.781C322.735 28.9997 324.446 30.109 327.067 30.109C329.688 30.109 330.998 29.2441 330.998 27.5206C330.998 26.781 330.572 26.1794 329.725 25.7156C328.879 25.2518 327.857 24.8381 326.66 24.4684C325.462 24.0986 324.24 23.7225 322.986 23.334C321.732 22.9454 320.679 22.256 319.832 21.2532C318.986 20.2504 318.559 18.9844 318.559 17.4426C318.559 15.318 319.368 13.6069 320.986 12.3096C322.603 11.0185 324.616 10.3667 327.017 10.3667C328.929 10.3667 330.628 10.7929 332.127 11.639C333.619 12.4851 334.766 13.6634 335.569 15.1738L331.362 17.5303C330.559 15.7755 329.111 14.898 327.017 14.898C326.064 14.898 325.262 15.1049 324.616 15.5122C323.983 15.9322 323.657 16.5338 323.657 17.3235Z" fill="white"/>
<path d="M346.032 6.44966C345.387 7.0952 344.615 7.42111 343.731 7.42111C342.847 7.42111 342.076 7.0952 341.431 6.44966C340.785 5.80411 340.459 5.03322 340.459 4.14952C340.459 3.26581 340.772 2.50119 341.405 1.84938C342.039 1.20384 342.81 0.87793 343.731 0.87793C344.647 0.87793 345.424 1.20384 346.057 1.84938C346.691 2.49492 347.004 3.26581 347.004 4.14952C347.004 5.03949 346.678 5.80411 346.032 6.44966ZM341.167 34.6843V10.3229H346.289V34.6843H341.167Z" fill="white"/>
<path d="M412.965 33.6002C412.276 34.2896 411.442 34.6343 410.476 34.6343C409.505 34.6343 408.671 34.2896 407.981 33.6002C407.292 32.9108 406.947 32.0835 406.947 31.1058C406.947 30.1343 407.285 29.307 407.956 28.6176C408.627 27.9282 409.467 27.5835 410.47 27.5835C411.442 27.5835 412.27 27.9282 412.959 28.6176C413.649 29.307 413.994 30.1406 413.994 31.1058C414 32.0835 413.655 32.9108 412.965 33.6002Z" fill="white"/>
<path d="M280.209 0.877849V13.2999C278.033 11.4196 275.206 10.279 272.115 10.279C265.288 10.279 259.733 15.8319 259.733 22.6571C259.733 29.4823 265.288 35.0352 272.115 35.0352C275.206 35.0352 278.033 33.8946 280.209 32.0143V34.7093H285.112V0.871582H280.209V0.877849ZM272.115 30.1467C267.99 30.1467 264.629 26.7936 264.629 22.6634C264.629 18.5331 267.983 15.1801 272.115 15.1801C276.24 15.1801 279.601 18.5331 279.601 22.6634C279.601 26.7936 276.24 30.1467 272.115 30.1467Z" fill="white"/>
<path d="M392.057 10.0845C389.656 10.0845 387.493 10.9118 385.718 12.2467V10.3602H380.765V34.7029H385.718V20.081C386.42 17.2419 389.041 14.5406 392.057 14.5406C394.928 14.5406 398.006 15.5873 398.006 19.4354V34.6653H402.583V19.4354C402.583 13.6694 398.245 10.0845 392.057 10.0845Z" fill="white"/>
<path d="M371.675 10.3729V13.4126C369.518 11.4948 366.678 10.3228 363.574 10.3228C356.847 10.3228 351.368 15.7942 351.368 22.5254C351.368 29.2503 356.841 34.728 363.574 34.728C366.684 34.728 369.518 33.5623 371.675 31.6382V33.556C371.675 35.1918 371.179 36.7462 370.276 37.937C369.744 38.6389 368.126 40.2684 364.634 40.2684C358.916 40.2684 357.612 36.8778 357.493 36.5268L352.954 37.868C353.042 38.1563 355.173 44.9941 364.634 44.9941C368.59 44.9941 372.019 43.4585 374.044 40.7886C375.568 38.7831 376.408 36.2072 376.408 33.5498V10.3729H371.675ZM363.568 29.9962C359.449 29.9962 356.095 26.6431 356.095 22.5254C356.095 18.4077 359.449 15.0546 363.568 15.0546C367.687 15.0546 371.041 18.4077 371.041 22.5254C371.041 26.6431 367.693 29.9962 363.568 29.9962Z" fill="white"/>
<path d="M43.4163 0H7.235V7.17618H0V36.2256H7.235V43.4018H43.4163V0ZM36.1813 36.1692H7.29143V7.23259H36.1813V36.1692Z" fill="white"/>
</g>
<defs>
<clipPath id="clip0_310_45">
<rect width="414" height="45" fill="white"/>
</clipPath>
</defs>
</svg>
