<svg width="850" height="350" viewBox="0 0 850 350" fill="none" xmlns="http://www.w3.org/2000/svg">
<rect width="850" height="350" fill="black"/>
<path d="M228.021 189.072H249.502V198.087H215.019V191.726L235.704 162.91H215.903V153.894H248.606V160.256L228.021 189.072Z" fill="white"/>
<path d="M266.905 179.876C267.577 183.068 269.111 185.51 271.519 187.223C273.927 188.926 276.861 189.788 280.333 189.788C285.149 189.788 288.755 188.052 291.163 184.58L298.633 188.948C294.489 195.052 288.363 198.098 280.255 198.098C273.423 198.098 267.913 196.015 263.724 191.849C259.524 187.682 257.43 182.408 257.43 176.024C257.43 169.763 259.502 164.511 263.646 160.289C267.79 156.066 273.098 153.95 279.594 153.95C285.754 153.95 290.793 156.1 294.747 160.412C298.689 164.724 300.66 169.954 300.66 176.102C300.66 177.054 300.548 178.309 300.324 179.876H266.905ZM266.827 172.496H291.499C290.883 169.08 289.472 166.515 287.266 164.78C285.059 163.044 282.472 162.181 279.504 162.181C276.144 162.181 273.345 163.1 271.116 164.948C268.865 166.784 267.442 169.304 266.827 172.496Z" fill="white"/>
<path d="M343.667 153.916H354.094L336.858 198.12H325.804L308.568 153.916H318.995L331.37 187.604L343.667 153.916Z" fill="white"/>
<path d="M371.498 179.876C372.17 183.068 373.704 185.51 376.112 187.223C378.52 188.926 381.454 189.788 384.926 189.788C389.742 189.788 393.348 188.052 395.756 184.58L403.226 188.948C399.082 195.052 392.956 198.098 384.848 198.098C378.016 198.098 372.506 196.015 368.317 191.849C364.117 187.682 362.023 182.408 362.023 176.024C362.023 169.763 364.095 164.511 368.239 160.289C372.383 156.066 377.691 153.95 384.187 153.95C390.347 153.95 395.386 156.1 399.34 160.412C403.282 164.724 405.253 169.954 405.253 176.102C405.253 177.054 405.141 178.309 404.917 179.876H371.498ZM371.42 172.496H396.092C395.476 169.08 394.065 166.515 391.859 164.78C389.652 163.044 387.065 162.181 384.097 162.181C380.737 162.181 377.938 163.1 375.709 164.948C373.458 166.784 372.024 169.304 371.42 172.496Z" fill="white"/>
<path d="M489.315 199.229C483.144 199.229 477.892 197.101 473.569 192.834C469.246 188.567 467.084 183.315 467.084 177.088C467.084 170.861 469.246 165.608 473.569 161.341C477.892 157.074 483.133 154.947 489.315 154.947C495.542 154.947 500.806 157.086 505.107 161.341C509.396 165.608 511.546 170.861 511.546 177.088C511.546 183.315 509.396 188.567 505.107 192.834C500.806 197.101 495.542 199.229 489.315 199.229ZM479.964 186.596C482.495 189.127 485.608 190.382 489.315 190.382C493.022 190.382 496.136 189.116 498.656 186.596C501.187 184.065 502.441 180.896 502.441 177.077C502.441 173.258 501.176 170.088 498.656 167.557C496.136 165.026 493.011 163.772 489.315 163.772C485.608 163.772 482.495 165.037 479.964 167.557C477.444 170.088 476.178 173.258 476.178 177.077C476.178 180.907 477.444 184.076 479.964 186.596Z" fill="white"/>
<path d="M198.354 153.95V159.281C194.479 155.921 189.428 153.894 183.918 153.894C171.733 153.894 161.821 163.806 161.821 175.991C161.821 188.176 171.733 198.087 183.918 198.087C189.439 198.087 194.479 196.049 198.354 192.7V198.087H207.101V153.95H198.354ZM183.918 189.352C176.549 189.352 170.568 183.36 170.568 176.002C170.568 168.644 176.56 162.652 183.918 162.652C191.276 162.652 197.268 168.644 197.268 176.002C197.268 183.36 191.276 189.352 183.918 189.352Z" fill="white"/>
<path d="M450.274 136.053V158.665C446.332 155.26 441.214 153.188 435.603 153.188C423.228 153.188 413.148 163.256 413.148 175.643C413.148 188.03 423.216 198.098 435.603 198.098C441.203 198.098 446.332 196.026 450.274 192.621V197.504H459.156V136.053H450.274ZM435.603 189.206C428.122 189.206 422.041 183.124 422.041 175.643C422.041 168.162 428.122 162.081 435.603 162.081C443.084 162.081 449.166 168.162 449.166 175.643C449.166 183.124 443.084 189.206 435.603 189.206Z" fill="white"/>
<path d="M581.431 178.969C582.091 182.105 583.603 184.513 585.978 186.193C588.341 187.872 591.23 188.712 594.646 188.712C599.383 188.712 602.934 187.01 605.297 183.594L612.644 187.884C608.567 193.887 602.542 196.888 594.556 196.888C587.837 196.888 582.416 194.839 578.284 190.74C574.151 186.641 572.09 181.444 572.09 175.172C572.09 169.001 574.129 163.85 578.205 159.683C582.282 155.528 587.512 153.445 593.896 153.445C599.955 153.445 604.916 155.562 608.802 159.807C612.688 164.051 614.626 169.192 614.626 175.251C614.626 176.191 614.514 177.423 614.301 178.969H581.431ZM581.352 171.7H605.633C605.028 168.341 603.639 165.81 601.467 164.107C599.294 162.405 596.74 161.543 593.828 161.543C590.525 161.543 587.77 162.45 585.574 164.264C583.357 166.078 581.957 168.565 581.352 171.7Z" fill="white"/>
<path d="M633.161 165.955C633.161 167.31 633.923 168.385 635.446 169.18C636.969 169.964 638.806 170.692 640.934 171.353C643.073 172.014 645.257 172.686 647.497 173.38C649.736 174.074 651.607 175.351 653.107 177.21C654.608 179.081 655.359 181.432 655.359 184.266C655.359 188.231 653.835 191.344 650.778 193.595C647.72 195.857 643.879 196.977 639.254 196.977C635.177 196.977 631.683 196.126 628.76 194.413C625.837 192.71 623.72 190.336 622.399 187.312L630.081 182.855C631.515 186.819 634.572 188.802 639.254 188.802C643.935 188.802 646.276 187.256 646.276 184.176C646.276 182.855 645.514 181.78 644.002 180.951C642.49 180.122 640.665 179.383 638.526 178.722C636.387 178.061 634.203 177.389 631.963 176.695C629.723 176.001 627.842 174.769 626.33 172.977C624.818 171.185 624.056 168.923 624.056 166.168C624.056 162.371 625.501 159.314 628.39 156.995C631.28 154.688 634.875 153.523 639.164 153.523C642.58 153.523 645.615 154.285 648.292 155.797C650.957 157.309 653.007 159.414 654.44 162.113L646.925 166.324C645.492 163.189 642.905 161.621 639.164 161.621C637.462 161.621 636.028 161.99 634.875 162.718C633.744 163.469 633.161 164.544 633.161 165.955Z" fill="white"/>
<path d="M673.132 146.524C671.978 147.678 670.601 148.26 669.022 148.26C667.443 148.26 666.065 147.678 664.912 146.524C663.758 145.371 663.176 143.993 663.176 142.414C663.176 140.835 663.736 139.469 664.867 138.304C665.998 137.15 667.375 136.568 669.022 136.568C670.657 136.568 672.046 137.15 673.177 138.304C674.308 139.457 674.868 140.835 674.868 142.414C674.868 144.004 674.286 145.371 673.132 146.524ZM664.441 196.978V153.445H673.591V196.978H664.441V196.978Z" fill="white"/>
<path d="M792.697 195.04C791.465 196.272 789.976 196.888 788.251 196.888C786.515 196.888 785.025 196.272 783.794 195.04C782.562 193.808 781.946 192.33 781.946 190.582C781.946 188.847 782.55 187.368 783.749 186.136C784.947 184.904 786.448 184.288 788.24 184.288C789.976 184.288 791.454 184.904 792.686 186.136C793.918 187.368 794.534 188.858 794.534 190.582C794.545 192.33 793.929 193.808 792.697 195.04Z" fill="white"/>
<path d="M555.549 136.569V158.766C551.662 155.406 546.611 153.368 541.09 153.368C528.894 153.368 518.971 163.29 518.971 175.487C518.971 187.683 528.894 197.606 541.09 197.606C546.611 197.606 551.662 195.567 555.549 192.207V197.023H564.307V136.557H555.549V136.569ZM541.09 188.87C533.721 188.87 527.718 182.878 527.718 175.498C527.718 168.117 533.71 162.126 541.09 162.126C548.459 162.126 554.462 168.117 554.462 175.498C554.462 182.878 548.459 188.87 541.09 188.87Z" fill="white"/>
<path d="M755.347 153.02C751.057 153.02 747.193 154.498 744.024 156.884V153.513H735.177V197.011H744.024V170.883C745.278 165.81 749.96 160.983 755.347 160.983C760.476 160.983 765.975 162.853 765.975 169.729V196.944H774.151V169.729C774.151 159.426 766.401 153.02 755.347 153.02Z" fill="white"/>
<path d="M718.938 153.535V158.967C715.085 155.54 710.012 153.445 704.468 153.445C692.451 153.445 682.662 163.222 682.662 175.251C682.662 187.268 692.44 197.056 704.468 197.056C710.023 197.056 715.085 194.973 718.938 191.535V194.962C718.938 197.885 718.053 200.662 716.44 202.79C715.488 204.044 712.599 206.956 706.36 206.956C696.147 206.956 693.817 200.897 693.604 200.27L685.496 202.667C685.653 203.182 689.461 215.401 706.36 215.401C713.427 215.401 719.553 212.657 723.171 207.886C725.892 204.302 727.393 199.699 727.393 194.95V153.535H718.938ZM704.457 188.6C697.099 188.6 691.107 182.609 691.107 175.251C691.107 167.893 697.099 161.901 704.457 161.901C711.815 161.901 717.806 167.893 717.806 175.251C717.806 182.609 711.826 188.6 704.457 188.6Z" fill="white"/>
<path d="M132.556 135H67.9242V147.823H55V199.733H67.9242V212.556H132.556V135ZM119.632 199.632H68.025V147.924H119.632V199.632Z" fill="white"/>
<g opacity="0.2" clip-path="url(#clip0_97_36)">
<path d="M403.177 81.5894L403.026 75.8204L440.663 74.4966V80.6032L427.052 80.9725L426.2 80.9956L426.088 81.8404C425.758 84.3207 425.267 86.7772 424.626 89.2102C423.987 91.6374 423.185 94.0099 422.247 96.3278C421.416 98.3663 420.397 100.315 419.189 102.18L412.393 99.295C413.94 96.9258 415.203 94.4002 416.188 91.724L416.189 91.7215C417.297 88.6854 418.179 85.5887 418.827 82.4189L419.078 81.1872L417.822 81.219L403.177 81.5894ZM438.136 63.4138L435.796 57.2665L437.575 56.6095L440.084 62.8152L438.136 63.4138ZM408.97 61.2779L434.185 60.2614L434.34 66.6182L409.01 67.4955L408.97 61.2779ZM446.647 60.7123L444.558 61.3299L442.242 54.9446L444.119 54.2698L446.647 60.7123Z" stroke="white" stroke-width="2"/>
<path d="M401.179 141.939L401.025 135.783L410.607 135.649L411.666 135.634L411.591 134.577L410.956 125.696L417.232 125.091L417.867 134.618L417.93 135.562L418.876 135.551L427.556 135.454L428.618 135.442L428.542 134.383C428.261 130.436 427.924 126.506 427.524 122.587L434.056 121.472C434.624 125.787 435.063 130.108 435.378 134.423L435.447 135.362L436.388 135.35L447.534 135.213V141.374L436.665 141.511L435.678 141.524V142.511C435.678 144.39 435.646 146.283 435.58 148.188C435.444 150.621 435.229 153.021 434.93 155.4C434.631 157.776 434.222 160.14 433.709 162.506C433.255 164.59 432.675 166.611 431.971 168.567C429.715 168.332 427.479 168.077 425.263 167.804C426.16 164.786 426.92 161.726 427.539 158.613C428.239 155.096 428.692 151.527 428.892 147.892L428.893 147.875L428.893 147.857C428.926 146.215 428.926 144.464 428.893 142.591L428.876 141.597L427.882 141.609L419.353 141.706L418.305 141.718L418.367 142.765L419.166 156.366L413.074 157.115L412.137 142.738L412.075 141.79L411.125 141.803L401.179 141.939ZM444.702 123.207L446.376 122.595L448.705 129.033L446.855 129.617L444.702 123.207ZM442.557 131.142L440.841 131.706L438.705 125.537L440.282 124.944L442.557 131.142Z" stroke="white" stroke-width="2"/>
<path d="M438.402 188.654L443.446 193.175C440.881 194.897 437.34 197.406 432.829 200.699L432.415 201.001L432.419 201.514L432.616 229.701L425.356 229.859L425.739 207.752L425.773 205.803L424.17 206.912C418.373 210.923 413.047 214.194 408.19 216.728L405.308 210.735C410.772 207.646 416.702 203.876 423.113 199.422C429.467 195.008 434.558 191.422 438.402 188.654Z" stroke="white" stroke-width="2"/>
<path d="M404.391 288.131L408.851 282.855L411.31 285.395L411.871 285.974L412.556 285.549C417.772 282.309 422.854 278.712 427.815 274.751C432.501 271.01 437.078 266.933 441.537 262.525L446.5 268.361C441.482 272.701 436.506 276.877 431.584 280.881L431.584 280.881L431.579 280.885C427.729 284.057 423.773 287.113 419.719 290.06L419.71 290.066L419.702 290.072C418.412 291.051 417.089 291.985 415.746 292.868C414.603 293.62 413.319 294.281 411.893 294.843L404.391 288.131ZM419.157 267.657L404.899 260.976L407.941 254.789L422.125 262.028L419.157 267.657Z" stroke="white" stroke-width="2"/>
</g>
<defs>
<clipPath id="clip0_97_36">
<rect width="50" height="243" fill="white" transform="translate(400 53)"/>
</clipPath>
</defs>
</svg>
