<svg width="68" height="66" viewBox="0 0 68 66" fill="none" xmlns="http://www.w3.org/2000/svg">
<path d="M34 66C33.4779 66 32.9557 65.8313 32.5186 65.494C31.1926 64.4649 0 40.0791 0 19.5556C0 8.77311 8.71614 0 19.4286 0C30.141 0 38.8571 8.77311 38.8571 19.5556C38.8571 20.9049 37.7716 22 36.4286 22C35.088 22 34 20.9049 34 19.5556C34 11.4669 27.4647 4.88889 19.4286 4.88889C11.3924 4.88889 4.85714 11.4669 4.85714 19.5556C4.85714 35.3638 27.8727 55.374 34 60.4242C40.1249 55.374 63.1429 35.3467 63.1429 19.5556C63.1429 11.4669 56.6076 4.88889 48.5714 4.88889C46.3979 4.88889 44.3069 5.35822 42.3567 6.28222C41.1424 6.85911 39.6926 6.33356 39.1243 5.11378C38.5536 3.89156 39.0733 2.43711 40.2851 1.86022C42.8886 0.625778 45.6766 0 48.5714 0C59.2839 0 68 8.77311 68 19.5556C68 40.0791 36.8074 64.4649 35.4814 65.494C35.0443 65.8313 34.5221 66 34 66Z" fill="white"/>
</svg>
