<svg width="73" height="73" viewBox="0 0 73 73" fill="none" xmlns="http://www.w3.org/2000/svg">
<path d="M61.9963 0H11.0037C10.3275 0 9.67902 0.268621 9.20087 0.746769C8.72272 1.22492 8.4541 1.87343 8.4541 2.54963V40.7941C8.4541 41.4703 8.72272 42.1188 9.20087 42.5969C9.67902 43.0751 10.3275 43.3437 11.0037 43.3437C11.6799 43.3437 12.3284 43.0751 12.8066 42.5969C13.2847 42.1188 13.5534 41.4703 13.5534 40.7941V5.09926H59.4467V37.1991L48.2028 48.443H33.9504C33.6148 48.441 33.2822 48.5053 32.9716 48.6322C32.6609 48.7591 32.3784 48.9461 32.1402 49.1824L25.0267 56.3213V50.9926C25.0267 50.3164 24.7581 49.6679 24.2799 49.1897C23.8018 48.7116 23.1533 48.443 22.4771 48.443H11.0037C10.3275 48.443 9.67902 48.7116 9.20087 49.1897C8.72272 49.6679 8.4541 50.3164 8.4541 50.9926C8.4541 51.6688 8.72272 52.3173 9.20087 52.7955C9.67902 53.2736 10.3275 53.5422 11.0037 53.5422H19.9274V62.4659C19.9299 62.9693 20.0814 63.4606 20.3627 63.8781C20.644 64.2955 21.0426 64.6203 21.5082 64.8116C21.8108 64.9543 22.1426 65.0242 22.4771 65.0155C22.8126 65.0175 23.1452 64.9532 23.4559 64.8263C23.7665 64.6994 24.0491 64.5125 24.2873 64.2762L34.9957 53.5422H49.2482C49.5837 53.5442 49.9164 53.4798 50.227 53.353C50.5376 53.2261 50.8202 53.0391 51.0584 52.8028L63.8066 40.0547C64.0429 39.8164 64.2298 39.5339 64.3567 39.2233C64.4836 38.9126 64.5479 38.58 64.5459 38.2444V2.54963C64.5459 1.87343 64.2773 1.22492 63.7992 0.746769C63.321 0.268621 62.6725 0 61.9963 0Z" fill="white"/>
<path d="M33.9505 33.1452V20.397C33.9505 19.7208 33.6818 19.0723 33.2037 18.5942C32.7255 18.116 32.077 17.8474 31.4008 17.8474C30.7246 17.8474 30.0761 18.116 29.598 18.5942C29.1198 19.0723 28.8512 19.7208 28.8512 20.397V33.1452C28.8512 33.8214 29.1198 34.4699 29.598 34.9481C30.0761 35.4262 30.7246 35.6948 31.4008 35.6948C32.077 35.6948 32.7255 35.4262 33.2037 34.9481C33.6818 34.4699 33.9505 33.8214 33.9505 33.1452Z" fill="white"/>
<path d="M49.2482 33.1452V20.397C49.2482 19.7208 48.9796 19.0723 48.5014 18.5942C48.0233 18.116 47.3748 17.8474 46.6986 17.8474C46.0224 17.8474 45.3738 18.116 44.8957 18.5942C44.4175 19.0723 44.1489 19.7208 44.1489 20.397V33.1452C44.1489 33.8214 44.4175 34.4699 44.8957 34.9481C45.3738 35.4262 46.0224 35.6948 46.6986 35.6948C47.3748 35.6948 48.0233 35.4262 48.5014 34.9481C48.9796 34.4699 49.2482 33.8214 49.2482 33.1452Z" fill="white"/>
</svg>
